<svg width="38" height="10" viewBox="0 0 38 10" fill="none" xmlns="http://www.w3.org/2000/svg">
<path d="M5.70117 6.77344H2.12695L1.32422 9H0.164062L3.42188 0.46875H4.40625L7.66992 9H6.51562L5.70117 6.77344ZM2.4668 5.84766H5.36719L3.91406 1.85742L2.4668 5.84766ZM11.7129 3.63281C11.5488 3.60547 11.3711 3.5918 11.1797 3.5918C10.4688 3.5918 9.98633 3.89453 9.73242 4.5V9H8.64844V2.66016H9.70312L9.7207 3.39258C10.0762 2.82617 10.5801 2.54297 11.2324 2.54297C11.4434 2.54297 11.6035 2.57031 11.7129 2.625V3.63281ZM15.7793 3.63281C15.6152 3.60547 15.4375 3.5918 15.2461 3.5918C14.5352 3.5918 14.0527 3.89453 13.7988 4.5V9H12.7148V2.66016H13.7695L13.7871 3.39258C14.1426 2.82617 14.6465 2.54297 15.2988 2.54297C15.5098 2.54297 15.6699 2.57031 15.7793 2.625V3.63281ZM16.377 5.77148C16.377 5.15039 16.498 4.5918 16.7402 4.0957C16.9863 3.59961 17.3262 3.2168 17.7598 2.94727C18.1973 2.67773 18.6953 2.54297 19.2539 2.54297C20.1172 2.54297 20.8145 2.8418 21.3457 3.43945C21.8809 4.03711 22.1484 4.83203 22.1484 5.82422V5.90039C22.1484 6.51758 22.0293 7.07227 21.791 7.56445C21.5566 8.05273 21.2188 8.43359 20.7773 8.70703C20.3398 8.98047 19.8359 9.11719 19.2656 9.11719C18.4062 9.11719 17.709 8.81836 17.1738 8.2207C16.6426 7.62305 16.377 6.83203 16.377 5.84766V5.77148ZM17.4668 5.90039C17.4668 6.60352 17.6289 7.16797 17.9531 7.59375C18.2812 8.01953 18.7188 8.23242 19.2656 8.23242C19.8164 8.23242 20.2539 8.01758 20.5781 7.58789C20.9023 7.1543 21.0645 6.54883 21.0645 5.77148C21.0645 5.07617 20.8984 4.51367 20.5664 4.08398C20.2383 3.65039 19.8008 3.43359 19.2539 3.43359C18.7188 3.43359 18.2871 3.64648 17.959 4.07227C17.6309 4.49805 17.4668 5.10742 17.4668 5.90039ZM29.1211 7.50586L30.3398 2.66016H31.4238L29.5781 9H28.6992L27.1582 4.19531L25.6582 9H24.7793L22.9395 2.66016H24.0176L25.2656 7.40625L26.7422 2.66016H27.6152L29.1211 7.50586ZM36.2227 7.31836C36.2227 7.02539 36.1113 6.79883 35.8887 6.63867C35.6699 6.47461 35.2852 6.33398 34.7344 6.2168C34.1875 6.09961 33.752 5.95898 33.4277 5.79492C33.1074 5.63086 32.8691 5.43555 32.7129 5.20898C32.5605 4.98242 32.4844 4.71289 32.4844 4.40039C32.4844 3.88086 32.7031 3.44141 33.1406 3.08203C33.582 2.72266 34.1445 2.54297 34.8281 2.54297C35.5469 2.54297 36.1289 2.72852 36.5742 3.09961C37.0234 3.4707 37.248 3.94531 37.248 4.52344H36.1582C36.1582 4.22656 36.0312 3.9707 35.7773 3.75586C35.5273 3.54102 35.2109 3.43359 34.8281 3.43359C34.4336 3.43359 34.125 3.51953 33.9023 3.69141C33.6797 3.86328 33.5684 4.08789 33.5684 4.36523C33.5684 4.62695 33.6719 4.82422 33.8789 4.95703C34.0859 5.08984 34.459 5.2168 34.998 5.33789C35.541 5.45898 35.9805 5.60352 36.3164 5.77148C36.6523 5.93945 36.9004 6.14258 37.0605 6.38086C37.2246 6.61523 37.3066 6.90234 37.3066 7.24219C37.3066 7.80859 37.0801 8.26367 36.627 8.60742C36.1738 8.94727 35.5859 9.11719 34.8633 9.11719C34.3555 9.11719 33.9062 9.02734 33.5156 8.84766C33.125 8.66797 32.8184 8.41797 32.5957 8.09766C32.377 7.77344 32.2676 7.42383 32.2676 7.04883H33.3516C33.3711 7.41211 33.5156 7.70117 33.7852 7.91602C34.0586 8.12695 34.418 8.23242 34.8633 8.23242C35.2734 8.23242 35.6016 8.15039 35.8477 7.98633C36.0977 7.81836 36.2227 7.5957 36.2227 7.31836Z" fill="black"/>
</svg>
