<svg width="35" height="10" viewBox="0 0 35 10" fill="none" xmlns="http://www.w3.org/2000/svg">
<path d="M0.990234 9V0.46875H3.7793C4.70508 0.46875 5.40039 0.660156 5.86523 1.04297C6.33398 1.42578 6.56836 1.99219 6.56836 2.74219C6.56836 3.14062 6.45508 3.49414 6.22852 3.80273C6.00195 4.10742 5.69336 4.34375 5.30273 4.51172C5.76367 4.64062 6.12695 4.88672 6.39258 5.25C6.66211 5.60938 6.79688 6.03906 6.79688 6.53906C6.79688 7.30469 6.54883 7.90625 6.05273 8.34375C5.55664 8.78125 4.85547 9 3.94922 9H0.990234ZM2.11523 5.00977V8.08008H3.97266C4.49609 8.08008 4.9082 7.94531 5.20898 7.67578C5.51367 7.40234 5.66602 7.02734 5.66602 6.55078C5.66602 5.52344 5.10742 5.00977 3.99023 5.00977H2.11523ZM2.11523 4.10742H3.81445C4.30664 4.10742 4.69922 3.98438 4.99219 3.73828C5.28906 3.49219 5.4375 3.1582 5.4375 2.73633C5.4375 2.26758 5.30078 1.92773 5.02734 1.7168C4.75391 1.50195 4.33789 1.39453 3.7793 1.39453H2.11523V4.10742ZM12.2109 9C12.1484 8.875 12.0977 8.65234 12.0586 8.33203C11.5547 8.85547 10.9531 9.11719 10.2539 9.11719C9.62891 9.11719 9.11523 8.94141 8.71289 8.58984C8.31445 8.23438 8.11523 7.78516 8.11523 7.24219C8.11523 6.58203 8.36523 6.07031 8.86523 5.70703C9.36914 5.33984 10.0762 5.15625 10.9863 5.15625H12.041V4.6582C12.041 4.2793 11.9277 3.97852 11.7012 3.75586C11.4746 3.5293 11.1406 3.41602 10.6992 3.41602C10.3125 3.41602 9.98828 3.51367 9.72656 3.70898C9.46484 3.9043 9.33398 4.14062 9.33398 4.41797H8.24414C8.24414 4.10156 8.35547 3.79688 8.57812 3.50391C8.80469 3.20703 9.10938 2.97266 9.49219 2.80078C9.87891 2.62891 10.3027 2.54297 10.7637 2.54297C11.4941 2.54297 12.0664 2.72656 12.4805 3.09375C12.8945 3.45703 13.1094 3.95898 13.125 4.59961V7.51758C13.125 8.09961 13.1992 8.5625 13.3477 8.90625V9H12.2109ZM10.4121 8.17383C10.752 8.17383 11.0742 8.08594 11.3789 7.91016C11.6836 7.73438 11.9043 7.50586 12.041 7.22461V5.92383H11.1914C9.86328 5.92383 9.19922 6.3125 9.19922 7.08984C9.19922 7.42969 9.3125 7.69531 9.53906 7.88672C9.76562 8.07812 10.0566 8.17383 10.4121 8.17383ZM18.5156 7.31836C18.5156 7.02539 18.4043 6.79883 18.1816 6.63867C17.9629 6.47461 17.5781 6.33398 17.0273 6.2168C16.4805 6.09961 16.0449 5.95898 15.7207 5.79492C15.4004 5.63086 15.1621 5.43555 15.0059 5.20898C14.8535 4.98242 14.7773 4.71289 14.7773 4.40039C14.7773 3.88086 14.9961 3.44141 15.4336 3.08203C15.875 2.72266 16.4375 2.54297 17.1211 2.54297C17.8398 2.54297 18.4219 2.72852 18.8672 3.09961C19.3164 3.4707 19.541 3.94531 19.541 4.52344H18.4512C18.4512 4.22656 18.3242 3.9707 18.0703 3.75586C17.8203 3.54102 17.5039 3.43359 17.1211 3.43359C16.7266 3.43359 16.418 3.51953 16.1953 3.69141C15.9727 3.86328 15.8613 4.08789 15.8613 4.36523C15.8613 4.62695 15.9648 4.82422 16.1719 4.95703C16.3789 5.08984 16.752 5.2168 17.291 5.33789C17.834 5.45898 18.2734 5.60352 18.6094 5.77148C18.9453 5.93945 19.1934 6.14258 19.3535 6.38086C19.5176 6.61523 19.5996 6.90234 19.5996 7.24219C19.5996 7.80859 19.373 8.26367 18.9199 8.60742C18.4668 8.94727 17.8789 9.11719 17.1562 9.11719C16.6484 9.11719 16.1992 9.02734 15.8086 8.84766C15.418 8.66797 15.1113 8.41797 14.8887 8.09766C14.6699 7.77344 14.5605 7.42383 14.5605 7.04883H15.6445C15.6641 7.41211 15.8086 7.70117 16.0781 7.91602C16.3516 8.12695 16.7109 8.23242 17.1562 8.23242C17.5664 8.23242 17.8945 8.15039 18.1406 7.98633C18.3906 7.81836 18.5156 7.5957 18.5156 7.31836ZM22.1895 9H21.1055V2.66016H22.1895V9ZM21.0176 0.978516C21.0176 0.802734 21.0703 0.654297 21.1758 0.533203C21.2852 0.412109 21.4453 0.351562 21.6562 0.351562C21.8672 0.351562 22.0273 0.412109 22.1367 0.533203C22.2461 0.654297 22.3008 0.802734 22.3008 0.978516C22.3008 1.1543 22.2461 1.30078 22.1367 1.41797C22.0273 1.53516 21.8672 1.59375 21.6562 1.59375C21.4453 1.59375 21.2852 1.53516 21.1758 1.41797C21.0703 1.30078 21.0176 1.1543 21.0176 0.978516ZM26.4727 8.23242C26.8594 8.23242 27.1973 8.11523 27.4863 7.88086C27.7754 7.64648 27.9355 7.35352 27.9668 7.00195H28.9922C28.9727 7.36523 28.8477 7.71094 28.6172 8.03906C28.3867 8.36719 28.0781 8.62891 27.6914 8.82422C27.3086 9.01953 26.9023 9.11719 26.4727 9.11719C25.6094 9.11719 24.9219 8.83008 24.4102 8.25586C23.9023 7.67773 23.6484 6.88867 23.6484 5.88867V5.70703C23.6484 5.08984 23.7617 4.54102 23.9883 4.06055C24.2148 3.58008 24.5391 3.20703 24.9609 2.94141C25.3867 2.67578 25.8887 2.54297 26.4668 2.54297C27.1777 2.54297 27.7676 2.75586 28.2363 3.18164C28.709 3.60742 28.9609 4.16016 28.9922 4.83984H27.9668C27.9355 4.42969 27.7793 4.09375 27.498 3.83203C27.2207 3.56641 26.877 3.43359 26.4668 3.43359C25.916 3.43359 25.4883 3.63281 25.1836 4.03125C24.8828 4.42578 24.7324 4.99805 24.7324 5.74805V5.95312C24.7324 6.68359 24.8828 7.24609 25.1836 7.64062C25.4844 8.03516 25.9141 8.23242 26.4727 8.23242ZM33.9023 7.31836C33.9023 7.02539 33.791 6.79883 33.5684 6.63867C33.3496 6.47461 32.9648 6.33398 32.4141 6.2168C31.8672 6.09961 31.4316 5.95898 31.1074 5.79492C30.7871 5.63086 30.5488 5.43555 30.3926 5.20898C30.2402 4.98242 30.1641 4.71289 30.1641 4.40039C30.1641 3.88086 30.3828 3.44141 30.8203 3.08203C31.2617 2.72266 31.8242 2.54297 32.5078 2.54297C33.2266 2.54297 33.8086 2.72852 34.2539 3.09961C34.7031 3.4707 34.9277 3.94531 34.9277 4.52344H33.8379C33.8379 4.22656 33.7109 3.9707 33.457 3.75586C33.207 3.54102 32.8906 3.43359 32.5078 3.43359C32.1133 3.43359 31.8047 3.51953 31.582 3.69141C31.3594 3.86328 31.248 4.08789 31.248 4.36523C31.248 4.62695 31.3516 4.82422 31.5586 4.95703C31.7656 5.08984 32.1387 5.2168 32.6777 5.33789C33.2207 5.45898 33.6602 5.60352 33.9961 5.77148C34.332 5.93945 34.5801 6.14258 34.7402 6.38086C34.9043 6.61523 34.9863 6.90234 34.9863 7.24219C34.9863 7.80859 34.7598 8.26367 34.3066 8.60742C33.8535 8.94727 33.2656 9.11719 32.543 9.11719C32.0352 9.11719 31.5859 9.02734 31.1953 8.84766C30.8047 8.66797 30.498 8.41797 30.2754 8.09766C30.0566 7.77344 29.9473 7.42383 29.9473 7.04883H31.0312C31.0508 7.41211 31.1953 7.70117 31.4648 7.91602C31.7383 8.12695 32.0977 8.23242 32.543 8.23242C32.9531 8.23242 33.2812 8.15039 33.5273 7.98633C33.7773 7.81836 33.9023 7.5957 33.9023 7.31836Z" fill="black"/>
</svg>
