<svg width="50" height="10" viewBox="0 0 50 10" fill="none" xmlns="http://www.w3.org/2000/svg">
<path d="M0.990234 9V0.46875H3.7793C4.70508 0.46875 5.40039 0.660156 5.86523 1.04297C6.33398 1.42578 6.56836 1.99219 6.56836 2.74219C6.56836 3.14062 6.45508 3.49414 6.22852 3.80273C6.00195 4.10742 5.69336 4.34375 5.30273 4.51172C5.76367 4.64062 6.12695 4.88672 6.39258 5.25C6.66211 5.60938 6.79688 6.03906 6.79688 6.53906C6.79688 7.30469 6.54883 7.90625 6.05273 8.34375C5.55664 8.78125 4.85547 9 3.94922 9H0.990234ZM2.11523 5.00977V8.08008H3.97266C4.49609 8.08008 4.9082 7.94531 5.20898 7.67578C5.51367 7.40234 5.66602 7.02734 5.66602 6.55078C5.66602 5.52344 5.10742 5.00977 3.99023 5.00977H2.11523ZM2.11523 4.10742H3.81445C4.30664 4.10742 4.69922 3.98438 4.99219 3.73828C5.28906 3.49219 5.4375 3.1582 5.4375 2.73633C5.4375 2.26758 5.30078 1.92773 5.02734 1.7168C4.75391 1.50195 4.33789 1.39453 3.7793 1.39453H2.11523V4.10742ZM11.3613 3.63281C11.1973 3.60547 11.0195 3.5918 10.8281 3.5918C10.1172 3.5918 9.63477 3.89453 9.38086 4.5V9H8.29688V2.66016H9.35156L9.36914 3.39258C9.72461 2.82617 10.2285 2.54297 10.8809 2.54297C11.0918 2.54297 11.252 2.57031 11.3613 2.625V3.63281ZM11.959 5.77148C11.959 5.15039 12.0801 4.5918 12.3223 4.0957C12.5684 3.59961 12.9082 3.2168 13.3418 2.94727C13.7793 2.67773 14.2773 2.54297 14.8359 2.54297C15.6992 2.54297 16.3965 2.8418 16.9277 3.43945C17.4629 4.03711 17.7305 4.83203 17.7305 5.82422V5.90039C17.7305 6.51758 17.6113 7.07227 17.373 7.56445C17.1387 8.05273 16.8008 8.43359 16.3594 8.70703C15.9219 8.98047 15.418 9.11719 14.8477 9.11719C13.9883 9.11719 13.291 8.81836 12.7559 8.2207C12.2246 7.62305 11.959 6.83203 11.959 5.84766V5.77148ZM13.0488 5.90039C13.0488 6.60352 13.2109 7.16797 13.5352 7.59375C13.8633 8.01953 14.3008 8.23242 14.8477 8.23242C15.3984 8.23242 15.8359 8.01758 16.1602 7.58789C16.4844 7.1543 16.6465 6.54883 16.6465 5.77148C16.6465 5.07617 16.4805 4.51367 16.1484 4.08398C15.8203 3.65039 15.3828 3.43359 14.8359 3.43359C14.3008 3.43359 13.8691 3.64648 13.541 4.07227C13.2129 4.49805 13.0488 5.10742 13.0488 5.90039ZM24.7031 7.50586L25.9219 2.66016H27.0059L25.1602 9H24.2812L22.7402 4.19531L21.2402 9H20.3613L18.5215 2.66016H19.5996L20.8477 7.40625L22.3242 2.66016H23.1973L24.7031 7.50586ZM31.8047 7.31836C31.8047 7.02539 31.6934 6.79883 31.4707 6.63867C31.252 6.47461 30.8672 6.33398 30.3164 6.2168C29.7695 6.09961 29.334 5.95898 29.0098 5.79492C28.6895 5.63086 28.4512 5.43555 28.2949 5.20898C28.1426 4.98242 28.0664 4.71289 28.0664 4.40039C28.0664 3.88086 28.2852 3.44141 28.7227 3.08203C29.1641 2.72266 29.7266 2.54297 30.4102 2.54297C31.1289 2.54297 31.7109 2.72852 32.1562 3.09961C32.6055 3.4707 32.8301 3.94531 32.8301 4.52344H31.7402C31.7402 4.22656 31.6133 3.9707 31.3594 3.75586C31.1094 3.54102 30.793 3.43359 30.4102 3.43359C30.0156 3.43359 29.707 3.51953 29.4844 3.69141C29.2617 3.86328 29.1504 4.08789 29.1504 4.36523C29.1504 4.62695 29.2539 4.82422 29.4609 4.95703C29.668 5.08984 30.041 5.2168 30.5801 5.33789C31.123 5.45898 31.5625 5.60352 31.8984 5.77148C32.2344 5.93945 32.4824 6.14258 32.6426 6.38086C32.8066 6.61523 32.8887 6.90234 32.8887 7.24219C32.8887 7.80859 32.6621 8.26367 32.209 8.60742C31.7559 8.94727 31.168 9.11719 30.4453 9.11719C29.9375 9.11719 29.4883 9.02734 29.0977 8.84766C28.707 8.66797 28.4004 8.41797 28.1777 8.09766C27.959 7.77344 27.8496 7.42383 27.8496 7.04883H28.9336C28.9531 7.41211 29.0977 7.70117 29.3672 7.91602C29.6406 8.12695 30 8.23242 30.4453 8.23242C30.8555 8.23242 31.1836 8.15039 31.4297 7.98633C31.6797 7.81836 31.8047 7.5957 31.8047 7.31836ZM36.9316 9.11719C36.0723 9.11719 35.373 8.83594 34.834 8.27344C34.2949 7.70703 34.0254 6.95117 34.0254 6.00586V5.80664C34.0254 5.17773 34.1445 4.61719 34.3828 4.125C34.625 3.62891 34.9609 3.24219 35.3906 2.96484C35.8242 2.68359 36.293 2.54297 36.7969 2.54297C37.6211 2.54297 38.2617 2.81445 38.7188 3.35742C39.1758 3.90039 39.4043 4.67773 39.4043 5.68945V6.14062H35.1094C35.125 6.76562 35.3066 7.27148 35.6543 7.6582C36.0059 8.04102 36.4512 8.23242 36.9902 8.23242C37.373 8.23242 37.6973 8.1543 37.9629 7.99805C38.2285 7.8418 38.4609 7.63477 38.6602 7.37695L39.3223 7.89258C38.791 8.70898 37.9941 9.11719 36.9316 9.11719ZM36.7969 3.43359C36.3594 3.43359 35.9922 3.59375 35.6953 3.91406C35.3984 4.23047 35.2148 4.67578 35.1445 5.25H38.3203V5.16797C38.2891 4.61719 38.1406 4.19141 37.875 3.89062C37.6094 3.58594 37.25 3.43359 36.7969 3.43359ZM43.7285 3.63281C43.5645 3.60547 43.3867 3.5918 43.1953 3.5918C42.4844 3.5918 42.002 3.89453 41.748 4.5V9H40.6641V2.66016H41.7188L41.7363 3.39258C42.0918 2.82617 42.5957 2.54297 43.248 2.54297C43.459 2.54297 43.6191 2.57031 43.7285 2.625V3.63281ZM48.4219 7.31836C48.4219 7.02539 48.3105 6.79883 48.0879 6.63867C47.8691 6.47461 47.4844 6.33398 46.9336 6.2168C46.3867 6.09961 45.9512 5.95898 45.627 5.79492C45.3066 5.63086 45.0684 5.43555 44.9121 5.20898C44.7598 4.98242 44.6836 4.71289 44.6836 4.40039C44.6836 3.88086 44.9023 3.44141 45.3398 3.08203C45.7812 2.72266 46.3438 2.54297 47.0273 2.54297C47.7461 2.54297 48.3281 2.72852 48.7734 3.09961C49.2227 3.4707 49.4473 3.94531 49.4473 4.52344H48.3574C48.3574 4.22656 48.2305 3.9707 47.9766 3.75586C47.7266 3.54102 47.4102 3.43359 47.0273 3.43359C46.6328 3.43359 46.3242 3.51953 46.1016 3.69141C45.8789 3.86328 45.7676 4.08789 45.7676 4.36523C45.7676 4.62695 45.8711 4.82422 46.0781 4.95703C46.2852 5.08984 46.6582 5.2168 47.1973 5.33789C47.7402 5.45898 48.1797 5.60352 48.5156 5.77148C48.8516 5.93945 49.0996 6.14258 49.2598 6.38086C49.4238 6.61523 49.5059 6.90234 49.5059 7.24219C49.5059 7.80859 49.2793 8.26367 48.8262 8.60742C48.373 8.94727 47.7852 9.11719 47.0625 9.11719C46.5547 9.11719 46.1055 9.02734 45.7148 8.84766C45.3242 8.66797 45.0176 8.41797 44.7949 8.09766C44.5762 7.77344 44.4668 7.42383 44.4668 7.04883H45.5508C45.5703 7.41211 45.7148 7.70117 45.9844 7.91602C46.2578 8.12695 46.6172 8.23242 47.0625 8.23242C47.4727 8.23242 47.8008 8.15039 48.0469 7.98633C48.2969 7.81836 48.4219 7.5957 48.4219 7.31836Z" fill="black"/>
</svg>
