<svg width="59" height="10" viewBox="0 0 59 10" fill="none" xmlns="http://www.w3.org/2000/svg">
<path d="M7.26562 6.29297C7.16016 7.19531 6.82617 7.89258 6.26367 8.38477C5.70508 8.87305 4.96094 9.11719 4.03125 9.11719C3.02344 9.11719 2.21484 8.75586 1.60547 8.0332C1 7.31055 0.697266 6.34375 0.697266 5.13281V4.3125C0.697266 3.51953 0.837891 2.82227 1.11914 2.2207C1.4043 1.61914 1.80664 1.1582 2.32617 0.837891C2.8457 0.513672 3.44727 0.351562 4.13086 0.351562C5.03711 0.351562 5.76367 0.605469 6.31055 1.11328C6.85742 1.61719 7.17578 2.31641 7.26562 3.21094H6.13477C6.03711 2.53125 5.82422 2.03906 5.49609 1.73438C5.17188 1.42969 4.7168 1.27734 4.13086 1.27734C3.41211 1.27734 2.84766 1.54297 2.4375 2.07422C2.03125 2.60547 1.82812 3.36133 1.82812 4.3418V5.16797C1.82812 6.09375 2.02148 6.83008 2.4082 7.37695C2.79492 7.92383 3.33594 8.19727 4.03125 8.19727C4.65625 8.19727 5.13477 8.05664 5.4668 7.77539C5.80273 7.49023 6.02539 6.99609 6.13477 6.29297H7.26562ZM8.34961 5.77148C8.34961 5.15039 8.4707 4.5918 8.71289 4.0957C8.95898 3.59961 9.29883 3.2168 9.73242 2.94727C10.1699 2.67773 10.668 2.54297 11.2266 2.54297C12.0898 2.54297 12.7871 2.8418 13.3184 3.43945C13.8535 4.03711 14.1211 4.83203 14.1211 5.82422V5.90039C14.1211 6.51758 14.002 7.07227 13.7637 7.56445C13.5293 8.05273 13.1914 8.43359 12.75 8.70703C12.3125 8.98047 11.8086 9.11719 11.2383 9.11719C10.3789 9.11719 9.68164 8.81836 9.14648 8.2207C8.61523 7.62305 8.34961 6.83203 8.34961 5.84766V5.77148ZM9.43945 5.90039C9.43945 6.60352 9.60156 7.16797 9.92578 7.59375C10.2539 8.01953 10.6914 8.23242 11.2383 8.23242C11.7891 8.23242 12.2266 8.01758 12.5508 7.58789C12.875 7.1543 13.0371 6.54883 13.0371 5.77148C13.0371 5.07617 12.8711 4.51367 12.5391 4.08398C12.2109 3.65039 11.7734 3.43359 11.2266 3.43359C10.6914 3.43359 10.2598 3.64648 9.93164 4.07227C9.60352 4.49805 9.43945 5.10742 9.43945 5.90039ZM16.5 2.66016L16.5293 3.36328C16.9941 2.81641 17.6211 2.54297 18.4102 2.54297C19.2969 2.54297 19.9004 2.88281 20.2207 3.5625C20.4316 3.25781 20.7051 3.01172 21.041 2.82422C21.3809 2.63672 21.7812 2.54297 22.2422 2.54297C23.6328 2.54297 24.3398 3.2793 24.3633 4.75195V9H23.2793V4.81641C23.2793 4.36328 23.1758 4.02539 22.9688 3.80273C22.7617 3.57617 22.4141 3.46289 21.9258 3.46289C21.5234 3.46289 21.1895 3.58398 20.9238 3.82617C20.6582 4.06445 20.5039 4.38672 20.4609 4.79297V9H19.3711V4.8457C19.3711 3.92383 18.9199 3.46289 18.0176 3.46289C17.3066 3.46289 16.8203 3.76562 16.5586 4.37109V9H15.4746V2.66016H16.5ZM27.0234 2.66016L27.0527 3.36328C27.5176 2.81641 28.1445 2.54297 28.9336 2.54297C29.8203 2.54297 30.4238 2.88281 30.7441 3.5625C30.9551 3.25781 31.2285 3.01172 31.5645 2.82422C31.9043 2.63672 32.3047 2.54297 32.7656 2.54297C34.1562 2.54297 34.8633 3.2793 34.8867 4.75195V9H33.8027V4.81641C33.8027 4.36328 33.6992 4.02539 33.4922 3.80273C33.2852 3.57617 32.9375 3.46289 32.4492 3.46289C32.0469 3.46289 31.7129 3.58398 31.4473 3.82617C31.1816 4.06445 31.0273 4.38672 30.9844 4.79297V9H29.8945V4.8457C29.8945 3.92383 29.4434 3.46289 28.541 3.46289C27.8301 3.46289 27.3438 3.76562 27.082 4.37109V9H25.998V2.66016H27.0234ZM39.1582 9.11719C38.2988 9.11719 37.5996 8.83594 37.0605 8.27344C36.5215 7.70703 36.252 6.95117 36.252 6.00586V5.80664C36.252 5.17773 36.3711 4.61719 36.6094 4.125C36.8516 3.62891 37.1875 3.24219 37.6172 2.96484C38.0508 2.68359 38.5195 2.54297 39.0234 2.54297C39.8477 2.54297 40.4883 2.81445 40.9453 3.35742C41.4023 3.90039 41.6309 4.67773 41.6309 5.68945V6.14062H37.3359C37.3516 6.76562 37.5332 7.27148 37.8809 7.6582C38.2324 8.04102 38.6777 8.23242 39.2168 8.23242C39.5996 8.23242 39.9238 8.1543 40.1895 7.99805C40.4551 7.8418 40.6875 7.63477 40.8867 7.37695L41.5488 7.89258C41.0176 8.70898 40.2207 9.11719 39.1582 9.11719ZM39.0234 3.43359C38.5859 3.43359 38.2188 3.59375 37.9219 3.91406C37.625 4.23047 37.4414 4.67578 37.3711 5.25H40.5469V5.16797C40.5156 4.61719 40.3672 4.19141 40.1016 3.89062C39.8359 3.58594 39.4766 3.43359 39.0234 3.43359ZM45.9551 3.63281C45.791 3.60547 45.6133 3.5918 45.4219 3.5918C44.7109 3.5918 44.2285 3.89453 43.9746 4.5V9H42.8906V2.66016H43.9453L43.9629 3.39258C44.3184 2.82617 44.8223 2.54297 45.4746 2.54297C45.6855 2.54297 45.8457 2.57031 45.9551 2.625V3.63281ZM49.3828 8.23242C49.7695 8.23242 50.1074 8.11523 50.3965 7.88086C50.6855 7.64648 50.8457 7.35352 50.877 7.00195H51.9023C51.8828 7.36523 51.7578 7.71094 51.5273 8.03906C51.2969 8.36719 50.9883 8.62891 50.6016 8.82422C50.2188 9.01953 49.8125 9.11719 49.3828 9.11719C48.5195 9.11719 47.832 8.83008 47.3203 8.25586C46.8125 7.67773 46.5586 6.88867 46.5586 5.88867V5.70703C46.5586 5.08984 46.6719 4.54102 46.8984 4.06055C47.125 3.58008 47.4492 3.20703 47.8711 2.94141C48.2969 2.67578 48.7988 2.54297 49.377 2.54297C50.0879 2.54297 50.6777 2.75586 51.1465 3.18164C51.6191 3.60742 51.8711 4.16016 51.9023 4.83984H50.877C50.8457 4.42969 50.6895 4.09375 50.4082 3.83203C50.1309 3.56641 49.7871 3.43359 49.377 3.43359C48.8262 3.43359 48.3984 3.63281 48.0938 4.03125C47.793 4.42578 47.6426 4.99805 47.6426 5.74805V5.95312C47.6426 6.68359 47.793 7.24609 48.0938 7.64062C48.3945 8.03516 48.8242 8.23242 49.3828 8.23242ZM55.752 9.11719C54.8926 9.11719 54.1934 8.83594 53.6543 8.27344C53.1152 7.70703 52.8457 6.95117 52.8457 6.00586V5.80664C52.8457 5.17773 52.9648 4.61719 53.2031 4.125C53.4453 3.62891 53.7812 3.24219 54.2109 2.96484C54.6445 2.68359 55.1133 2.54297 55.6172 2.54297C56.4414 2.54297 57.082 2.81445 57.5391 3.35742C57.9961 3.90039 58.2246 4.67773 58.2246 5.68945V6.14062H53.9297C53.9453 6.76562 54.127 7.27148 54.4746 7.6582C54.8262 8.04102 55.2715 8.23242 55.8105 8.23242C56.1934 8.23242 56.5176 8.1543 56.7832 7.99805C57.0488 7.8418 57.2812 7.63477 57.4805 7.37695L58.1426 7.89258C57.6113 8.70898 56.8145 9.11719 55.752 9.11719ZM55.6172 3.43359C55.1797 3.43359 54.8125 3.59375 54.5156 3.91406C54.2188 4.23047 54.0352 4.67578 53.9648 5.25H57.1406V5.16797C57.1094 4.61719 56.9609 4.19141 56.6953 3.89062C56.4297 3.58594 56.0703 3.43359 55.6172 3.43359Z" fill="black"/>
</svg>
