<svg width="30" height="12" viewBox="0 0 30 12" fill="none" xmlns="http://www.w3.org/2000/svg">
<path d="M5.8125 5.05664H2.11523V8.08008H6.41016V9H0.990234V0.46875H6.35156V1.39453H2.11523V4.13672H5.8125V5.05664ZM8.66016 2.66016L8.68945 3.36328C9.1543 2.81641 9.78125 2.54297 10.5703 2.54297C11.457 2.54297 12.0605 2.88281 12.3809 3.5625C12.5918 3.25781 12.8652 3.01172 13.2012 2.82422C13.541 2.63672 13.9414 2.54297 14.4023 2.54297C15.793 2.54297 16.5 3.2793 16.5234 4.75195V9H15.4395V4.81641C15.4395 4.36328 15.3359 4.02539 15.1289 3.80273C14.9219 3.57617 14.5742 3.46289 14.0859 3.46289C13.6836 3.46289 13.3496 3.58398 13.084 3.82617C12.8184 4.06445 12.6641 4.38672 12.6211 4.79297V9H11.5312V4.8457C11.5312 3.92383 11.0801 3.46289 10.1777 3.46289C9.4668 3.46289 8.98047 3.76562 8.71875 4.37109V9H7.63477V2.66016H8.66016ZM17.877 5.77148C17.877 5.15039 17.998 4.5918 18.2402 4.0957C18.4863 3.59961 18.8262 3.2168 19.2598 2.94727C19.6973 2.67773 20.1953 2.54297 20.7539 2.54297C21.6172 2.54297 22.3145 2.8418 22.8457 3.43945C23.3809 4.03711 23.6484 4.83203 23.6484 5.82422V5.90039C23.6484 6.51758 23.5293 7.07227 23.291 7.56445C23.0566 8.05273 22.7188 8.43359 22.2773 8.70703C21.8398 8.98047 21.3359 9.11719 20.7656 9.11719C19.9062 9.11719 19.209 8.81836 18.6738 8.2207C18.1426 7.62305 17.877 6.83203 17.877 5.84766V5.77148ZM18.9668 5.90039C18.9668 6.60352 19.1289 7.16797 19.4531 7.59375C19.7812 8.01953 20.2188 8.23242 20.7656 8.23242C21.3164 8.23242 21.7539 8.01758 22.0781 7.58789C22.4023 7.1543 22.5645 6.54883 22.5645 5.77148C22.5645 5.07617 22.3984 4.51367 22.0664 4.08398C21.7383 3.65039 21.3008 3.43359 20.7539 3.43359C20.2188 3.43359 19.7871 3.64648 19.459 4.07227C19.1309 4.49805 18.9668 5.10742 18.9668 5.90039ZM26.127 2.66016V9.73242C26.127 10.9512 25.5742 11.5605 24.4688 11.5605C24.2305 11.5605 24.0098 11.5254 23.8066 11.4551V10.5879C23.9316 10.6191 24.0957 10.6348 24.2988 10.6348C24.541 10.6348 24.7246 10.5684 24.8496 10.4355C24.9785 10.3066 25.043 10.0801 25.043 9.75586V2.66016H26.127ZM24.9316 0.978516C24.9316 0.806641 24.9844 0.660156 25.0898 0.539062C25.1992 0.414063 25.3574 0.351562 25.5645 0.351562C25.7754 0.351562 25.9355 0.412109 26.0449 0.533203C26.1543 0.654297 26.209 0.802734 26.209 0.978516C26.209 1.1543 26.1543 1.30078 26.0449 1.41797C25.9355 1.53516 25.7754 1.59375 25.5645 1.59375C25.3535 1.59375 25.1953 1.53516 25.0898 1.41797C24.9844 1.30078 24.9316 1.1543 24.9316 0.978516ZM29.0566 9H27.9727V2.66016H29.0566V9ZM27.8848 0.978516C27.8848 0.802734 27.9375 0.654297 28.043 0.533203C28.1523 0.412109 28.3125 0.351562 28.5234 0.351562C28.7344 0.351562 28.8945 0.412109 29.0039 0.533203C29.1133 0.654297 29.168 0.802734 29.168 0.978516C29.168 1.1543 29.1133 1.30078 29.0039 1.41797C28.8945 1.53516 28.7344 1.59375 28.5234 1.59375C28.3125 1.59375 28.1523 1.53516 28.043 1.41797C27.9375 1.30078 27.8848 1.1543 27.8848 0.978516Z" fill="black"/>
</svg>
