<svg width="55" height="10" viewBox="0 0 55 10" fill="none" xmlns="http://www.w3.org/2000/svg">
<path d="M5.8125 5.05664H2.11523V8.08008H6.41016V9H0.990234V0.46875H6.35156V1.39453H2.11523V4.13672H5.8125V5.05664ZM11.332 7.31836C11.332 7.02539 11.2207 6.79883 10.998 6.63867C10.7793 6.47461 10.3945 6.33398 9.84375 6.2168C9.29688 6.09961 8.86133 5.95898 8.53711 5.79492C8.2168 5.63086 7.97852 5.43555 7.82227 5.20898C7.66992 4.98242 7.59375 4.71289 7.59375 4.40039C7.59375 3.88086 7.8125 3.44141 8.25 3.08203C8.69141 2.72266 9.25391 2.54297 9.9375 2.54297C10.6562 2.54297 11.2383 2.72852 11.6836 3.09961C12.1328 3.4707 12.3574 3.94531 12.3574 4.52344H11.2676C11.2676 4.22656 11.1406 3.9707 10.8867 3.75586C10.6367 3.54102 10.3203 3.43359 9.9375 3.43359C9.54297 3.43359 9.23438 3.51953 9.01172 3.69141C8.78906 3.86328 8.67773 4.08789 8.67773 4.36523C8.67773 4.62695 8.78125 4.82422 8.98828 4.95703C9.19531 5.08984 9.56836 5.2168 10.1074 5.33789C10.6504 5.45898 11.0898 5.60352 11.4258 5.77148C11.7617 5.93945 12.0098 6.14258 12.1699 6.38086C12.334 6.61523 12.416 6.90234 12.416 7.24219C12.416 7.80859 12.1895 8.26367 11.7363 8.60742C11.2832 8.94727 10.6953 9.11719 9.97266 9.11719C9.46484 9.11719 9.01562 9.02734 8.625 8.84766C8.23438 8.66797 7.92773 8.41797 7.70508 8.09766C7.48633 7.77344 7.37695 7.42383 7.37695 7.04883H8.46094C8.48047 7.41211 8.625 7.70117 8.89453 7.91602C9.16797 8.12695 9.52734 8.23242 9.97266 8.23242C10.3828 8.23242 10.7109 8.15039 10.957 7.98633C11.207 7.81836 11.332 7.5957 11.332 7.31836ZM17.5195 7.31836C17.5195 7.02539 17.4082 6.79883 17.1855 6.63867C16.9668 6.47461 16.582 6.33398 16.0312 6.2168C15.4844 6.09961 15.0488 5.95898 14.7246 5.79492C14.4043 5.63086 14.166 5.43555 14.0098 5.20898C13.8574 4.98242 13.7812 4.71289 13.7812 4.40039C13.7812 3.88086 14 3.44141 14.4375 3.08203C14.8789 2.72266 15.4414 2.54297 16.125 2.54297C16.8438 2.54297 17.4258 2.72852 17.8711 3.09961C18.3203 3.4707 18.5449 3.94531 18.5449 4.52344H17.4551C17.4551 4.22656 17.3281 3.9707 17.0742 3.75586C16.8242 3.54102 16.5078 3.43359 16.125 3.43359C15.7305 3.43359 15.4219 3.51953 15.1992 3.69141C14.9766 3.86328 14.8652 4.08789 14.8652 4.36523C14.8652 4.62695 14.9688 4.82422 15.1758 4.95703C15.3828 5.08984 15.7559 5.2168 16.2949 5.33789C16.8379 5.45898 17.2773 5.60352 17.6133 5.77148C17.9492 5.93945 18.1973 6.14258 18.3574 6.38086C18.5215 6.61523 18.6035 6.90234 18.6035 7.24219C18.6035 7.80859 18.377 8.26367 17.9238 8.60742C17.4707 8.94727 16.8828 9.11719 16.1602 9.11719C15.6523 9.11719 15.2031 9.02734 14.8125 8.84766C14.4219 8.66797 14.1152 8.41797 13.8926 8.09766C13.6738 7.77344 13.5645 7.42383 13.5645 7.04883H14.6484C14.668 7.41211 14.8125 7.70117 15.082 7.91602C15.3555 8.12695 15.7148 8.23242 16.1602 8.23242C16.5703 8.23242 16.8984 8.15039 17.1445 7.98633C17.3945 7.81836 17.5195 7.5957 17.5195 7.31836ZM22.6465 9.11719C21.7871 9.11719 21.0879 8.83594 20.5488 8.27344C20.0098 7.70703 19.7402 6.95117 19.7402 6.00586V5.80664C19.7402 5.17773 19.8594 4.61719 20.0977 4.125C20.3398 3.62891 20.6758 3.24219 21.1055 2.96484C21.5391 2.68359 22.0078 2.54297 22.5117 2.54297C23.3359 2.54297 23.9766 2.81445 24.4336 3.35742C24.8906 3.90039 25.1191 4.67773 25.1191 5.68945V6.14062H20.8242C20.8398 6.76562 21.0215 7.27148 21.3691 7.6582C21.7207 8.04102 22.166 8.23242 22.7051 8.23242C23.0879 8.23242 23.4121 8.1543 23.6777 7.99805C23.9434 7.8418 24.1758 7.63477 24.375 7.37695L25.0371 7.89258C24.5059 8.70898 23.709 9.11719 22.6465 9.11719ZM22.5117 3.43359C22.0742 3.43359 21.707 3.59375 21.4102 3.91406C21.1133 4.23047 20.9297 4.67578 20.8594 5.25H24.0352V5.16797C24.0039 4.61719 23.8555 4.19141 23.5898 3.89062C23.3242 3.58594 22.9648 3.43359 22.5117 3.43359ZM27.4043 2.66016L27.4395 3.45703C27.9238 2.84766 28.5566 2.54297 29.3379 2.54297C30.6777 2.54297 31.3535 3.29883 31.3652 4.81055V9H30.2812V4.80469C30.2773 4.34766 30.1719 4.00977 29.9648 3.79102C29.7617 3.57227 29.4434 3.46289 29.0098 3.46289C28.6582 3.46289 28.3496 3.55664 28.084 3.74414C27.8184 3.93164 27.6113 4.17773 27.4629 4.48242V9H26.3789V2.66016H27.4043ZM34.4707 1.125V2.66016H35.6543V3.49805H34.4707V7.42969C34.4707 7.68359 34.5234 7.875 34.6289 8.00391C34.7344 8.12891 34.9141 8.19141 35.168 8.19141C35.293 8.19141 35.4648 8.16797 35.6836 8.12109V9C35.3984 9.07812 35.1211 9.11719 34.8516 9.11719C34.3672 9.11719 34.002 8.9707 33.7559 8.67773C33.5098 8.38477 33.3867 7.96875 33.3867 7.42969V3.49805H32.2324V2.66016H33.3867V1.125H34.4707ZM38.1035 9H37.0195V2.66016H38.1035V9ZM36.9316 0.978516C36.9316 0.802734 36.9844 0.654297 37.0898 0.533203C37.1992 0.412109 37.3594 0.351562 37.5703 0.351562C37.7812 0.351562 37.9414 0.412109 38.0508 0.533203C38.1602 0.654297 38.2148 0.802734 38.2148 0.978516C38.2148 1.1543 38.1602 1.30078 38.0508 1.41797C37.9414 1.53516 37.7812 1.59375 37.5703 1.59375C37.3594 1.59375 37.1992 1.53516 37.0898 1.41797C36.9844 1.30078 36.9316 1.1543 36.9316 0.978516ZM43.7578 9C43.6953 8.875 43.6445 8.65234 43.6055 8.33203C43.1016 8.85547 42.5 9.11719 41.8008 9.11719C41.1758 9.11719 40.6621 8.94141 40.2598 8.58984C39.8613 8.23438 39.6621 7.78516 39.6621 7.24219C39.6621 6.58203 39.9121 6.07031 40.4121 5.70703C40.916 5.33984 41.623 5.15625 42.5332 5.15625H43.5879V4.6582C43.5879 4.2793 43.4746 3.97852 43.248 3.75586C43.0215 3.5293 42.6875 3.41602 42.2461 3.41602C41.8594 3.41602 41.5352 3.51367 41.2734 3.70898C41.0117 3.9043 40.8809 4.14062 40.8809 4.41797H39.791C39.791 4.10156 39.9023 3.79688 40.125 3.50391C40.3516 3.20703 40.6562 2.97266 41.0391 2.80078C41.4258 2.62891 41.8496 2.54297 42.3105 2.54297C43.041 2.54297 43.6133 2.72656 44.0273 3.09375C44.4414 3.45703 44.6562 3.95898 44.6719 4.59961V7.51758C44.6719 8.09961 44.7461 8.5625 44.8945 8.90625V9H43.7578ZM41.959 8.17383C42.2988 8.17383 42.6211 8.08594 42.9258 7.91016C43.2305 7.73438 43.4512 7.50586 43.5879 7.22461V5.92383H42.7383C41.4102 5.92383 40.7461 6.3125 40.7461 7.08984C40.7461 7.42969 40.8594 7.69531 41.0859 7.88672C41.3125 8.07812 41.6035 8.17383 41.959 8.17383ZM47.5488 9H46.4648V0H47.5488V9ZM52.9805 7.31836C52.9805 7.02539 52.8691 6.79883 52.6465 6.63867C52.4277 6.47461 52.043 6.33398 51.4922 6.2168C50.9453 6.09961 50.5098 5.95898 50.1855 5.79492C49.8652 5.63086 49.627 5.43555 49.4707 5.20898C49.3184 4.98242 49.2422 4.71289 49.2422 4.40039C49.2422 3.88086 49.4609 3.44141 49.8984 3.08203C50.3398 2.72266 50.9023 2.54297 51.5859 2.54297C52.3047 2.54297 52.8867 2.72852 53.332 3.09961C53.7812 3.4707 54.0059 3.94531 54.0059 4.52344H52.916C52.916 4.22656 52.7891 3.9707 52.5352 3.75586C52.2852 3.54102 51.9688 3.43359 51.5859 3.43359C51.1914 3.43359 50.8828 3.51953 50.6602 3.69141C50.4375 3.86328 50.3262 4.08789 50.3262 4.36523C50.3262 4.62695 50.4297 4.82422 50.6367 4.95703C50.8438 5.08984 51.2168 5.2168 51.7559 5.33789C52.2988 5.45898 52.7383 5.60352 53.0742 5.77148C53.4102 5.93945 53.6582 6.14258 53.8184 6.38086C53.9824 6.61523 54.0645 6.90234 54.0645 7.24219C54.0645 7.80859 53.8379 8.26367 53.3848 8.60742C52.9316 8.94727 52.3438 9.11719 51.6211 9.11719C51.1133 9.11719 50.6641 9.02734 50.2734 8.84766C49.8828 8.66797 49.5762 8.41797 49.3535 8.09766C49.1348 7.77344 49.0254 7.42383 49.0254 7.04883H50.1094C50.1289 7.41211 50.2734 7.70117 50.543 7.91602C50.8164 8.12695 51.1758 8.23242 51.6211 8.23242C52.0312 8.23242 52.3594 8.15039 52.6055 7.98633C52.8555 7.81836 52.9805 7.5957 52.9805 7.31836Z" fill="black"/>
</svg>
