<svg width="76" height="11" viewBox="0 0 76 11" fill="none" xmlns="http://www.w3.org/2000/svg">
<path d="M5.69531 6.23242H2.11523V10H0.990234V1.46875H6.27539V2.39453H2.11523V5.3125H5.69531V6.23242ZM8.63086 10H7.54688V3.66016H8.63086V10ZM7.45898 1.97852C7.45898 1.80273 7.51172 1.6543 7.61719 1.5332C7.72656 1.41211 7.88672 1.35156 8.09766 1.35156C8.30859 1.35156 8.46875 1.41211 8.57812 1.5332C8.6875 1.6543 8.74219 1.80273 8.74219 1.97852C8.74219 2.1543 8.6875 2.30078 8.57812 2.41797C8.46875 2.53516 8.30859 2.59375 8.09766 2.59375C7.88672 2.59375 7.72656 2.53516 7.61719 2.41797C7.51172 2.30078 7.45898 2.1543 7.45898 1.97852ZM11.5488 10H10.4648V1H11.5488V10ZM15.9199 10.1172C15.0605 10.1172 14.3613 9.83594 13.8223 9.27344C13.2832 8.70703 13.0137 7.95117 13.0137 7.00586V6.80664C13.0137 6.17773 13.1328 5.61719 13.3711 5.125C13.6133 4.62891 13.9492 4.24219 14.3789 3.96484C14.8125 3.68359 15.2812 3.54297 15.7852 3.54297C16.6094 3.54297 17.25 3.81445 17.707 4.35742C18.1641 4.90039 18.3926 5.67773 18.3926 6.68945V7.14062H14.0977C14.1133 7.76562 14.2949 8.27148 14.6426 8.6582C14.9941 9.04102 15.4395 9.23242 15.9785 9.23242C16.3613 9.23242 16.6855 9.1543 16.9512 8.99805C17.2168 8.8418 17.4492 8.63477 17.6484 8.37695L18.3105 8.89258C17.7793 9.70898 16.9824 10.1172 15.9199 10.1172ZM15.7852 4.43359C15.3477 4.43359 14.9805 4.59375 14.6836 4.91406C14.3867 5.23047 14.2031 5.67578 14.1328 6.25H17.3086V6.16797C17.2773 5.61719 17.1289 5.19141 16.8633 4.89062C16.5977 4.58594 16.2383 4.43359 15.7852 4.43359ZM23.3438 8.31836C23.3438 8.02539 23.2324 7.79883 23.0098 7.63867C22.791 7.47461 22.4062 7.33398 21.8555 7.2168C21.3086 7.09961 20.873 6.95898 20.5488 6.79492C20.2285 6.63086 19.9902 6.43555 19.834 6.20898C19.6816 5.98242 19.6055 5.71289 19.6055 5.40039C19.6055 4.88086 19.8242 4.44141 20.2617 4.08203C20.7031 3.72266 21.2656 3.54297 21.9492 3.54297C22.668 3.54297 23.25 3.72852 23.6953 4.09961C24.1445 4.4707 24.3691 4.94531 24.3691 5.52344H23.2793C23.2793 5.22656 23.1523 4.9707 22.8984 4.75586C22.6484 4.54102 22.332 4.43359 21.9492 4.43359C21.5547 4.43359 21.2461 4.51953 21.0234 4.69141C20.8008 4.86328 20.6895 5.08789 20.6895 5.36523C20.6895 5.62695 20.793 5.82422 21 5.95703C21.207 6.08984 21.5801 6.2168 22.1191 6.33789C22.6621 6.45898 23.1016 6.60352 23.4375 6.77148C23.7734 6.93945 24.0215 7.14258 24.1816 7.38086C24.3457 7.61523 24.4277 7.90234 24.4277 8.24219C24.4277 8.80859 24.2012 9.26367 23.748 9.60742C23.2949 9.94727 22.707 10.1172 21.9844 10.1172C21.4766 10.1172 21.0273 10.0273 20.6367 9.84766C20.2461 9.66797 19.9395 9.41797 19.7168 9.09766C19.498 8.77344 19.3887 8.42383 19.3887 8.04883H20.4727C20.4922 8.41211 20.6367 8.70117 20.9062 8.91602C21.1797 9.12695 21.5391 9.23242 21.9844 9.23242C22.3945 9.23242 22.7227 9.15039 22.9688 8.98633C23.2188 8.81836 23.3438 8.5957 23.3438 8.31836ZM28.5879 7.70898C28.5879 7.29883 28.7012 6.92188 28.9277 6.57812C29.1582 6.23438 29.5957 5.83398 30.2402 5.37695C29.8613 4.91602 29.6074 4.54492 29.4785 4.26367C29.3496 3.98242 29.2852 3.70312 29.2852 3.42578C29.2852 2.77734 29.4766 2.26953 29.8594 1.90234C30.2422 1.53516 30.7617 1.35156 31.418 1.35156C32.0039 1.35156 32.4883 1.52344 32.8711 1.86719C33.2539 2.20703 33.4453 2.63672 33.4453 3.15625C33.4453 3.5 33.3574 3.81836 33.1816 4.11133C33.0098 4.40039 32.707 4.70508 32.2734 5.02539L31.6465 5.48828L33.5449 7.75586C33.8105 7.24805 33.9434 6.68359 33.9434 6.0625H34.9219C34.9219 7.05859 34.6816 7.88477 34.2012 8.54102L35.4199 10H34.1191L33.5508 9.32617C33.2617 9.58398 32.9219 9.78125 32.5312 9.91797C32.1445 10.0508 31.75 10.1172 31.3477 10.1172C30.5156 10.1172 29.8477 9.89648 29.3438 9.45508C28.8398 9.01367 28.5879 8.43164 28.5879 7.70898ZM31.3477 9.23242C31.9219 9.23242 32.4473 9.01367 32.9238 8.57617L30.8438 6.08594L30.6504 6.22656C29.998 6.70703 29.6719 7.20117 29.6719 7.70898C29.6719 8.16992 29.8203 8.53906 30.1172 8.81641C30.418 9.09375 30.8281 9.23242 31.3477 9.23242ZM30.3691 3.39062C30.3691 3.76562 30.5996 4.23438 31.0605 4.79688L31.752 4.31055C32.0176 4.12305 32.1992 3.94531 32.2969 3.77734C32.3945 3.60547 32.4434 3.39844 32.4434 3.15625C32.4434 2.89453 32.3457 2.67773 32.1504 2.50586C31.9551 2.33008 31.709 2.24219 31.4121 2.24219C31.0918 2.24219 30.8379 2.35156 30.6504 2.57031C30.4629 2.78516 30.3691 3.05859 30.3691 3.39062ZM39.791 10V4.49805H38.7891V3.66016H39.791V3.00977C39.791 2.33008 39.9727 1.80469 40.3359 1.43359C40.6992 1.0625 41.2129 0.876953 41.877 0.876953C42.127 0.876953 42.375 0.910156 42.6211 0.976562L42.5625 1.85547C42.3789 1.82031 42.1836 1.80273 41.9766 1.80273C41.625 1.80273 41.3535 1.90625 41.1621 2.11328C40.9707 2.31641 40.875 2.60938 40.875 2.99219V3.66016H42.2285V4.49805H40.875V10H39.791ZM43.1426 6.77148C43.1426 6.15039 43.2637 5.5918 43.5059 5.0957C43.752 4.59961 44.0918 4.2168 44.5254 3.94727C44.9629 3.67773 45.4609 3.54297 46.0195 3.54297C46.8828 3.54297 47.5801 3.8418 48.1113 4.43945C48.6465 5.03711 48.9141 5.83203 48.9141 6.82422V6.90039C48.9141 7.51758 48.7949 8.07227 48.5566 8.56445C48.3223 9.05273 47.9844 9.43359 47.543 9.70703C47.1055 9.98047 46.6016 10.1172 46.0312 10.1172C45.1719 10.1172 44.4746 9.81836 43.9395 9.2207C43.4082 8.62305 43.1426 7.83203 43.1426 6.84766V6.77148ZM44.2324 6.90039C44.2324 7.60352 44.3945 8.16797 44.7188 8.59375C45.0469 9.01953 45.4844 9.23242 46.0312 9.23242C46.582 9.23242 47.0195 9.01758 47.3438 8.58789C47.668 8.1543 47.8301 7.54883 47.8301 6.77148C47.8301 6.07617 47.6641 5.51367 47.332 5.08398C47.0039 4.65039 46.5664 4.43359 46.0195 4.43359C45.4844 4.43359 45.0527 4.64648 44.7246 5.07227C44.3965 5.49805 44.2324 6.10742 44.2324 6.90039ZM51.4512 10H50.3672V1H51.4512V10ZM52.9277 6.77734C52.9277 5.80469 53.1582 5.02344 53.6191 4.43359C54.0801 3.83984 54.6836 3.54297 55.4297 3.54297C56.1719 3.54297 56.7598 3.79688 57.1934 4.30469V1H58.2773V10H57.2812L57.2285 9.32031C56.7949 9.85156 56.1914 10.1172 55.418 10.1172C54.6836 10.1172 54.084 9.81641 53.6191 9.21484C53.1582 8.61328 52.9277 7.82812 52.9277 6.85938V6.77734ZM54.0117 6.90039C54.0117 7.61914 54.1602 8.18164 54.457 8.58789C54.7539 8.99414 55.1641 9.19727 55.6875 9.19727C56.375 9.19727 56.877 8.88867 57.1934 8.27148V5.35938C56.8691 4.76172 56.3711 4.46289 55.6992 4.46289C55.168 4.46289 54.7539 4.66797 54.457 5.07812C54.1602 5.48828 54.0117 6.0957 54.0117 6.90039ZM62.5957 10.1172C61.7363 10.1172 61.0371 9.83594 60.498 9.27344C59.959 8.70703 59.6895 7.95117 59.6895 7.00586V6.80664C59.6895 6.17773 59.8086 5.61719 60.0469 5.125C60.2891 4.62891 60.625 4.24219 61.0547 3.96484C61.4883 3.68359 61.957 3.54297 62.4609 3.54297C63.2852 3.54297 63.9258 3.81445 64.3828 4.35742C64.8398 4.90039 65.0684 5.67773 65.0684 6.68945V7.14062H60.7734C60.7891 7.76562 60.9707 8.27148 61.3184 8.6582C61.6699 9.04102 62.1152 9.23242 62.6543 9.23242C63.0371 9.23242 63.3613 9.1543 63.627 8.99805C63.8926 8.8418 64.125 8.63477 64.3242 8.37695L64.9863 8.89258C64.4551 9.70898 63.6582 10.1172 62.5957 10.1172ZM62.4609 4.43359C62.0234 4.43359 61.6562 4.59375 61.3594 4.91406C61.0625 5.23047 60.8789 5.67578 60.8086 6.25H63.9844V6.16797C63.9531 5.61719 63.8047 5.19141 63.5391 4.89062C63.2734 4.58594 62.9141 4.43359 62.4609 4.43359ZM69.3926 4.63281C69.2285 4.60547 69.0508 4.5918 68.8594 4.5918C68.1484 4.5918 67.666 4.89453 67.4121 5.5V10H66.3281V3.66016H67.3828L67.4004 4.39258C67.7559 3.82617 68.2598 3.54297 68.9121 3.54297C69.123 3.54297 69.2832 3.57031 69.3926 3.625V4.63281ZM74.0859 8.31836C74.0859 8.02539 73.9746 7.79883 73.752 7.63867C73.5332 7.47461 73.1484 7.33398 72.5977 7.2168C72.0508 7.09961 71.6152 6.95898 71.291 6.79492C70.9707 6.63086 70.7324 6.43555 70.5762 6.20898C70.4238 5.98242 70.3477 5.71289 70.3477 5.40039C70.3477 4.88086 70.5664 4.44141 71.0039 4.08203C71.4453 3.72266 72.0078 3.54297 72.6914 3.54297C73.4102 3.54297 73.9922 3.72852 74.4375 4.09961C74.8867 4.4707 75.1113 4.94531 75.1113 5.52344H74.0215C74.0215 5.22656 73.8945 4.9707 73.6406 4.75586C73.3906 4.54102 73.0742 4.43359 72.6914 4.43359C72.2969 4.43359 71.9883 4.51953 71.7656 4.69141C71.543 4.86328 71.4316 5.08789 71.4316 5.36523C71.4316 5.62695 71.5352 5.82422 71.7422 5.95703C71.9492 6.08984 72.3223 6.2168 72.8613 6.33789C73.4043 6.45898 73.8438 6.60352 74.1797 6.77148C74.5156 6.93945 74.7637 7.14258 74.9238 7.38086C75.0879 7.61523 75.1699 7.90234 75.1699 8.24219C75.1699 8.80859 74.9434 9.26367 74.4902 9.60742C74.0371 9.94727 73.4492 10.1172 72.7266 10.1172C72.2188 10.1172 71.7695 10.0273 71.3789 9.84766C70.9883 9.66797 70.6816 9.41797 70.459 9.09766C70.2402 8.77344 70.1309 8.42383 70.1309 8.04883H71.2148C71.2344 8.41211 71.3789 8.70117 71.6484 8.91602C71.9219 9.12695 72.2812 9.23242 72.7266 9.23242C73.1367 9.23242 73.4648 9.15039 73.7109 8.98633C73.9609 8.81836 74.0859 8.5957 74.0859 8.31836Z" fill="black"/>
</svg>
