<svg width="42" height="10" viewBox="0 0 42 10" fill="none" xmlns="http://www.w3.org/2000/svg">
<path d="M5.69531 5.23242H2.11523V9H0.990234V0.46875H6.27539V1.39453H2.11523V4.3125H5.69531V5.23242ZM8.63086 9H7.54688V2.66016H8.63086V9ZM7.45898 0.978516C7.45898 0.802734 7.51172 0.654297 7.61719 0.533203C7.72656 0.412109 7.88672 0.351562 8.09766 0.351562C8.30859 0.351562 8.46875 0.412109 8.57812 0.533203C8.6875 0.654297 8.74219 0.802734 8.74219 0.978516C8.74219 1.1543 8.6875 1.30078 8.57812 1.41797C8.46875 1.53516 8.30859 1.59375 8.09766 1.59375C7.88672 1.59375 7.72656 1.53516 7.61719 1.41797C7.51172 1.30078 7.45898 1.1543 7.45898 0.978516ZM11.3965 2.66016L11.4316 3.45703C11.916 2.84766 12.5488 2.54297 13.3301 2.54297C14.6699 2.54297 15.3457 3.29883 15.3574 4.81055V9H14.2734V4.80469C14.2695 4.34766 14.1641 4.00977 13.957 3.79102C13.7539 3.57227 13.4355 3.46289 13.002 3.46289C12.6504 3.46289 12.3418 3.55664 12.0762 3.74414C11.8105 3.93164 11.6035 4.17773 11.4551 4.48242V9H10.3711V2.66016H11.3965ZM20.9062 9C20.8438 8.875 20.793 8.65234 20.7539 8.33203C20.25 8.85547 19.6484 9.11719 18.9492 9.11719C18.3242 9.11719 17.8105 8.94141 17.4082 8.58984C17.0098 8.23438 16.8105 7.78516 16.8105 7.24219C16.8105 6.58203 17.0605 6.07031 17.5605 5.70703C18.0645 5.33984 18.7715 5.15625 19.6816 5.15625H20.7363V4.6582C20.7363 4.2793 20.623 3.97852 20.3965 3.75586C20.1699 3.5293 19.8359 3.41602 19.3945 3.41602C19.0078 3.41602 18.6836 3.51367 18.4219 3.70898C18.1602 3.9043 18.0293 4.14062 18.0293 4.41797H16.9395C16.9395 4.10156 17.0508 3.79688 17.2734 3.50391C17.5 3.20703 17.8047 2.97266 18.1875 2.80078C18.5742 2.62891 18.998 2.54297 19.459 2.54297C20.1895 2.54297 20.7617 2.72656 21.1758 3.09375C21.5898 3.45703 21.8047 3.95898 21.8203 4.59961V7.51758C21.8203 8.09961 21.8945 8.5625 22.043 8.90625V9H20.9062ZM19.1074 8.17383C19.4473 8.17383 19.7695 8.08594 20.0742 7.91016C20.3789 7.73438 20.5996 7.50586 20.7363 7.22461V5.92383H19.8867C18.5586 5.92383 17.8945 6.3125 17.8945 7.08984C17.8945 7.42969 18.0078 7.69531 18.2344 7.88672C18.4609 8.07812 18.752 8.17383 19.1074 8.17383ZM24.5449 2.66016L24.5801 3.45703C25.0645 2.84766 25.6973 2.54297 26.4785 2.54297C27.8184 2.54297 28.4941 3.29883 28.5059 4.81055V9H27.4219V4.80469C27.418 4.34766 27.3125 4.00977 27.1055 3.79102C26.9023 3.57227 26.584 3.46289 26.1504 3.46289C25.7988 3.46289 25.4902 3.55664 25.2246 3.74414C24.959 3.93164 24.752 4.17773 24.6035 4.48242V9H23.5195V2.66016H24.5449ZM32.6836 8.23242C33.0703 8.23242 33.4082 8.11523 33.6973 7.88086C33.9863 7.64648 34.1465 7.35352 34.1777 7.00195H35.2031C35.1836 7.36523 35.0586 7.71094 34.8281 8.03906C34.5977 8.36719 34.2891 8.62891 33.9023 8.82422C33.5195 9.01953 33.1133 9.11719 32.6836 9.11719C31.8203 9.11719 31.1328 8.83008 30.6211 8.25586C30.1133 7.67773 29.8594 6.88867 29.8594 5.88867V5.70703C29.8594 5.08984 29.9727 4.54102 30.1992 4.06055C30.4258 3.58008 30.75 3.20703 31.1719 2.94141C31.5977 2.67578 32.0996 2.54297 32.6777 2.54297C33.3887 2.54297 33.9785 2.75586 34.4473 3.18164C34.9199 3.60742 35.1719 4.16016 35.2031 4.83984H34.1777C34.1465 4.42969 33.9902 4.09375 33.709 3.83203C33.4316 3.56641 33.0879 3.43359 32.6777 3.43359C32.127 3.43359 31.6992 3.63281 31.3945 4.03125C31.0938 4.42578 30.9434 4.99805 30.9434 5.74805V5.95312C30.9434 6.68359 31.0938 7.24609 31.3945 7.64062C31.6953 8.03516 32.125 8.23242 32.6836 8.23242ZM39.0527 9.11719C38.1934 9.11719 37.4941 8.83594 36.9551 8.27344C36.416 7.70703 36.1465 6.95117 36.1465 6.00586V5.80664C36.1465 5.17773 36.2656 4.61719 36.5039 4.125C36.7461 3.62891 37.082 3.24219 37.5117 2.96484C37.9453 2.68359 38.4141 2.54297 38.918 2.54297C39.7422 2.54297 40.3828 2.81445 40.8398 3.35742C41.2969 3.90039 41.5254 4.67773 41.5254 5.68945V6.14062H37.2305C37.2461 6.76562 37.4277 7.27148 37.7754 7.6582C38.127 8.04102 38.5723 8.23242 39.1113 8.23242C39.4941 8.23242 39.8184 8.1543 40.084 7.99805C40.3496 7.8418 40.582 7.63477 40.7812 7.37695L41.4434 7.89258C40.9121 8.70898 40.1152 9.11719 39.0527 9.11719ZM38.918 3.43359C38.4805 3.43359 38.1133 3.59375 37.8164 3.91406C37.5195 4.23047 37.3359 4.67578 37.2656 5.25H40.4414V5.16797C40.4102 4.61719 40.2617 4.19141 39.9961 3.89062C39.7305 3.58594 39.3711 3.43359 38.918 3.43359Z" fill="black"/>
</svg>
