<svg width="62" height="12" viewBox="0 0 62 12" fill="none" xmlns="http://www.w3.org/2000/svg">
<path d="M6.88477 1.39453H4.14258V9H3.02344V1.39453H0.287109V0.46875H6.88477V1.39453ZM10.0254 9.11719C9.16602 9.11719 8.4668 8.83594 7.92773 8.27344C7.38867 7.70703 7.11914 6.95117 7.11914 6.00586V5.80664C7.11914 5.17773 7.23828 4.61719 7.47656 4.125C7.71875 3.62891 8.05469 3.24219 8.48438 2.96484C8.91797 2.68359 9.38672 2.54297 9.89062 2.54297C10.7148 2.54297 11.3555 2.81445 11.8125 3.35742C12.2695 3.90039 12.498 4.67773 12.498 5.68945V6.14062H8.20312C8.21875 6.76562 8.40039 7.27148 8.74805 7.6582C9.09961 8.04102 9.54492 8.23242 10.084 8.23242C10.4668 8.23242 10.791 8.1543 11.0566 7.99805C11.3223 7.8418 11.5547 7.63477 11.7539 7.37695L12.416 7.89258C11.8848 8.70898 11.0879 9.11719 10.0254 9.11719ZM9.89062 3.43359C9.45312 3.43359 9.08594 3.59375 8.78906 3.91406C8.49219 4.23047 8.30859 4.67578 8.23828 5.25H11.4141V5.16797C11.3828 4.61719 11.2344 4.19141 10.9688 3.89062C10.7031 3.58594 10.3438 3.43359 9.89062 3.43359ZM16.3008 8.23242C16.6875 8.23242 17.0254 8.11523 17.3145 7.88086C17.6035 7.64648 17.7637 7.35352 17.7949 7.00195H18.8203C18.8008 7.36523 18.6758 7.71094 18.4453 8.03906C18.2148 8.36719 17.9062 8.62891 17.5195 8.82422C17.1367 9.01953 16.7305 9.11719 16.3008 9.11719C15.4375 9.11719 14.75 8.83008 14.2383 8.25586C13.7305 7.67773 13.4766 6.88867 13.4766 5.88867V5.70703C13.4766 5.08984 13.5898 4.54102 13.8164 4.06055C14.043 3.58008 14.3672 3.20703 14.7891 2.94141C15.2148 2.67578 15.7168 2.54297 16.2949 2.54297C17.0059 2.54297 17.5957 2.75586 18.0645 3.18164C18.5371 3.60742 18.7891 4.16016 18.8203 4.83984H17.7949C17.7637 4.42969 17.6074 4.09375 17.3262 3.83203C17.0488 3.56641 16.7051 3.43359 16.2949 3.43359C15.7441 3.43359 15.3164 3.63281 15.0117 4.03125C14.7109 4.42578 14.5605 4.99805 14.5605 5.74805V5.95312C14.5605 6.68359 14.7109 7.24609 15.0117 7.64062C15.3125 8.03516 15.7422 8.23242 16.3008 8.23242ZM21.123 3.42773C21.6035 2.83789 22.2285 2.54297 22.998 2.54297C24.3379 2.54297 25.0137 3.29883 25.0254 4.81055V9H23.9414V4.80469C23.9375 4.34766 23.832 4.00977 23.625 3.79102C23.4219 3.57227 23.1035 3.46289 22.6699 3.46289C22.3184 3.46289 22.0098 3.55664 21.7441 3.74414C21.4785 3.93164 21.2715 4.17773 21.123 4.48242V9H20.0391V0H21.123V3.42773ZM27.6738 2.66016L27.709 3.45703C28.1934 2.84766 28.8262 2.54297 29.6074 2.54297C30.9473 2.54297 31.623 3.29883 31.6348 4.81055V9H30.5508V4.80469C30.5469 4.34766 30.4414 4.00977 30.2344 3.79102C30.0312 3.57227 29.7129 3.46289 29.2793 3.46289C28.9277 3.46289 28.6191 3.55664 28.3535 3.74414C28.0879 3.93164 27.8809 4.17773 27.7324 4.48242V9H26.6484V2.66016H27.6738ZM32.9824 5.77148C32.9824 5.15039 33.1035 4.5918 33.3457 4.0957C33.5918 3.59961 33.9316 3.2168 34.3652 2.94727C34.8027 2.67773 35.3008 2.54297 35.8594 2.54297C36.7227 2.54297 37.4199 2.8418 37.9512 3.43945C38.4863 4.03711 38.7539 4.83203 38.7539 5.82422V5.90039C38.7539 6.51758 38.6348 7.07227 38.3965 7.56445C38.1621 8.05273 37.8242 8.43359 37.3828 8.70703C36.9453 8.98047 36.4414 9.11719 35.8711 9.11719C35.0117 9.11719 34.3145 8.81836 33.7793 8.2207C33.248 7.62305 32.9824 6.83203 32.9824 5.84766V5.77148ZM34.0723 5.90039C34.0723 6.60352 34.2344 7.16797 34.5586 7.59375C34.8867 8.01953 35.3242 8.23242 35.8711 8.23242C36.4219 8.23242 36.8594 8.01758 37.1836 7.58789C37.5078 7.1543 37.6699 6.54883 37.6699 5.77148C37.6699 5.07617 37.5039 4.51367 37.1719 4.08398C36.8438 3.65039 36.4062 3.43359 35.8594 3.43359C35.3242 3.43359 34.8926 3.64648 34.5645 4.07227C34.2363 4.49805 34.0723 5.10742 34.0723 5.90039ZM41.291 9H40.207V0H41.291V9ZM42.7441 5.77148C42.7441 5.15039 42.8652 4.5918 43.1074 4.0957C43.3535 3.59961 43.6934 3.2168 44.127 2.94727C44.5645 2.67773 45.0625 2.54297 45.6211 2.54297C46.4844 2.54297 47.1816 2.8418 47.7129 3.43945C48.248 4.03711 48.5156 4.83203 48.5156 5.82422V5.90039C48.5156 6.51758 48.3965 7.07227 48.1582 7.56445C47.9238 8.05273 47.5859 8.43359 47.1445 8.70703C46.707 8.98047 46.2031 9.11719 45.6328 9.11719C44.7734 9.11719 44.0762 8.81836 43.541 8.2207C43.0098 7.62305 42.7441 6.83203 42.7441 5.84766V5.77148ZM43.834 5.90039C43.834 6.60352 43.9961 7.16797 44.3203 7.59375C44.6484 8.01953 45.0859 8.23242 45.6328 8.23242C46.1836 8.23242 46.6211 8.01758 46.9453 7.58789C47.2695 7.1543 47.4316 6.54883 47.4316 5.77148C47.4316 5.07617 47.2656 4.51367 46.9336 4.08398C46.6055 3.65039 46.168 3.43359 45.6211 3.43359C45.0859 3.43359 44.6543 3.64648 44.3262 4.07227C43.998 4.49805 43.834 5.10742 43.834 5.90039ZM49.6172 5.77734C49.6172 4.78906 49.8457 4.00391 50.3027 3.42188C50.7598 2.83594 51.3652 2.54297 52.1191 2.54297C52.8926 2.54297 53.4961 2.81641 53.9297 3.36328L53.9824 2.66016H54.9727V8.84766C54.9727 9.66797 54.7285 10.3145 54.2402 10.7871C53.7559 11.2598 53.1035 11.4961 52.2832 11.4961C51.8262 11.4961 51.3789 11.3984 50.9414 11.2031C50.5039 11.0078 50.1699 10.7402 49.9395 10.4004L50.502 9.75C50.9668 10.3242 51.5352 10.6113 52.207 10.6113C52.7344 10.6113 53.1445 10.4629 53.4375 10.166C53.7344 9.86914 53.8828 9.45117 53.8828 8.91211V8.36719C53.4492 8.86719 52.8574 9.11719 52.1074 9.11719C51.3652 9.11719 50.7637 8.81836 50.3027 8.2207C49.8457 7.62305 49.6172 6.80859 49.6172 5.77734ZM50.707 5.90039C50.707 6.61523 50.8535 7.17773 51.1465 7.58789C51.4395 7.99414 51.8496 8.19727 52.377 8.19727C53.0605 8.19727 53.5625 7.88672 53.8828 7.26562V4.37109C53.5508 3.76562 53.0527 3.46289 52.3887 3.46289C51.8613 3.46289 51.4492 3.66797 51.1523 4.07812C50.8555 4.48828 50.707 5.0957 50.707 5.90039ZM58.6875 7.41211L60.1641 2.66016H61.3242L58.7754 9.97852C58.3809 11.0332 57.7539 11.5605 56.8945 11.5605L56.6895 11.543L56.2852 11.4668V10.5879L56.5781 10.6113C56.9453 10.6113 57.2305 10.5371 57.4336 10.3887C57.6406 10.2402 57.8105 9.96875 57.9434 9.57422L58.1836 8.92969L55.9219 2.66016H57.1055L58.6875 7.41211Z" fill="black"/>
</svg>
