<svg width="49" height="91" viewBox="0 0 49 91" fill="none" xmlns="http://www.w3.org/2000/svg">
<rect x="0.52002" y="9.46783" width="9.40678" height="9.40678" fill="black"/>
<rect x="30.0842" y="9.46783" width="9.40678" height="9.40678" fill="black"/>
<rect x="9.92682" y="9.46783" width="9.40678" height="9.40678" fill="black"/>
<rect x="39.491" y="9.46783" width="9.40678" height="9.40678" fill="black"/>
<rect x="9.92682" y="0.0610657" width="9.40678" height="9.40678" fill="black"/>
<rect x="39.491" y="0.0610657" width="9.40678" height="9.40678" fill="black"/>
<rect x="0.52002" y="0.0610657" width="9.40678" height="9.40678" fill="black"/>
<rect x="30.0842" y="0.0610657" width="9.40678" height="9.40678" fill="black"/>
<rect x="0.52002" y="45.0611" width="9.40678" height="9.40678" fill="black"/>
<rect x="30.0842" y="45.0611" width="9.40678" height="9.40678" fill="black"/>
<rect x="9.92682" y="45.0611" width="9.40678" height="9.40678" fill="black"/>
<rect x="39.491" y="45.0611" width="9.40678" height="9.40678" fill="black"/>
<rect x="9.92682" y="35.6543" width="9.40678" height="9.40678" fill="black"/>
<rect x="39.491" y="35.6543" width="9.40678" height="9.40678" fill="black"/>
<rect x="0.52002" y="35.6543" width="9.40678" height="9.40678" fill="black"/>
<rect x="30.0842" y="35.6543" width="9.40678" height="9.40678" fill="black"/>
<rect x="0.52002" y="80.6543" width="9.40678" height="9.40678" fill="black"/>
<rect x="30.0842" y="80.6543" width="9.40678" height="9.40678" fill="black"/>
<rect x="9.92682" y="80.6543" width="9.40678" height="9.40678" fill="black"/>
<rect x="39.491" y="80.6543" width="9.40678" height="9.40678" fill="black"/>
<rect x="9.92682" y="71.2475" width="9.40678" height="9.40678" fill="black"/>
<rect x="39.491" y="71.2475" width="9.40678" height="9.40678" fill="black"/>
<rect x="0.52002" y="71.2475" width="9.40678" height="9.40678" fill="black"/>
<rect x="30.0842" y="71.2475" width="9.40678" height="9.40678" fill="black"/>
</svg>
