<svg width="15" height="15" viewBox="0 0 15 15" fill="none" xmlns="http://www.w3.org/2000/svg">
<path d="M6.85358 5.85355L7.20714 5.5L6.50003 4.79289L6.14648 5.14645L6.85358 5.85355ZM4.50003 7.5L4.14648 7.14645L3.79292 7.5L4.14648 7.85355L4.50003 7.5ZM6.14648 9.85355L6.50003 10.2071L7.20714 9.5L6.85358 9.14645L6.14648 9.85355ZM7.50003 0.5V0V0.5ZM14.5 7.5H15H14.5ZM0.500031 7.5H1.00003H0.500031ZM7.50003 14.5V14V14.5ZM6.14648 5.14645L4.14648 7.14645L4.85358 7.85355L6.85358 5.85355L6.14648 5.14645ZM4.14648 7.85355L6.14648 9.85355L6.85358 9.14645L4.85358 7.14645L4.14648 7.85355ZM4.50003 8L11 8V7L4.50003 7V8ZM7.50003 1C11.0899 1 14 3.91015 14 7.5H15C15 3.35786 11.6422 3.57628e-07 7.50003 0V1ZM1.00003 7.5C1.00003 3.91015 3.91018 1 7.50003 1V0C3.3579 -3.57628e-07 3.08752e-05 3.35786 3.05176e-05 7.5H1.00003ZM7.50003 14C3.91018 14 1.00003 11.0899 1.00003 7.5H3.05176e-05C3.016e-05 11.6421 3.35789 15 7.50003 15V14ZM7.50003 15C11.6422 15 15 11.6421 15 7.5H14C14 11.0899 11.0899 14 7.50003 14V15Z" fill="black"/>
</svg>
