<svg width="52" height="12" viewBox="0 0 52 12" fill="none" xmlns="http://www.w3.org/2000/svg">
<path d="M5.70117 6.77344H2.12695L1.32422 9H0.164062L3.42188 0.46875H4.40625L7.66992 9H6.51562L5.70117 6.77344ZM2.4668 5.84766H5.36719L3.91406 1.85742L2.4668 5.84766ZM12.4922 8.37305C12.0703 8.86914 11.4512 9.11719 10.6348 9.11719C9.95898 9.11719 9.44336 8.92188 9.08789 8.53125C8.73633 8.13672 8.55859 7.55469 8.55469 6.78516V2.66016H9.63867V6.75586C9.63867 7.7168 10.0293 8.19727 10.8105 8.19727C11.6387 8.19727 12.1895 7.88867 12.4629 7.27148V2.66016H13.5469V9H12.5156L12.4922 8.37305ZM16.6699 1.125V2.66016H17.8535V3.49805H16.6699V7.42969C16.6699 7.68359 16.7227 7.875 16.8281 8.00391C16.9336 8.12891 17.1133 8.19141 17.3672 8.19141C17.4922 8.19141 17.6641 8.16797 17.8828 8.12109V9C17.5977 9.07812 17.3203 9.11719 17.0508 9.11719C16.5664 9.11719 16.2012 8.9707 15.9551 8.67773C15.709 8.38477 15.5859 7.96875 15.5859 7.42969V3.49805H14.4316V2.66016H15.5859V1.125H16.6699ZM20.209 3.42773C20.6895 2.83789 21.3145 2.54297 22.084 2.54297C23.4238 2.54297 24.0996 3.29883 24.1113 4.81055V9H23.0273V4.80469C23.0234 4.34766 22.918 4.00977 22.7109 3.79102C22.5078 3.57227 22.1895 3.46289 21.7559 3.46289C21.4043 3.46289 21.0957 3.55664 20.8301 3.74414C20.5645 3.93164 20.3574 4.17773 20.209 4.48242V9H19.125V0H20.209V3.42773ZM25.4473 5.77148C25.4473 5.15039 25.5684 4.5918 25.8105 4.0957C26.0566 3.59961 26.3965 3.2168 26.8301 2.94727C27.2676 2.67773 27.7656 2.54297 28.3242 2.54297C29.1875 2.54297 29.8848 2.8418 30.416 3.43945C30.9512 4.03711 31.2188 4.83203 31.2188 5.82422V5.90039C31.2188 6.51758 31.0996 7.07227 30.8613 7.56445C30.627 8.05273 30.2891 8.43359 29.8477 8.70703C29.4102 8.98047 28.9062 9.11719 28.3359 9.11719C27.4766 9.11719 26.7793 8.81836 26.2441 8.2207C25.7129 7.62305 25.4473 6.83203 25.4473 5.84766V5.77148ZM26.5371 5.90039C26.5371 6.60352 26.6992 7.16797 27.0234 7.59375C27.3516 8.01953 27.7891 8.23242 28.3359 8.23242C28.8867 8.23242 29.3242 8.01758 29.6484 7.58789C29.9727 7.1543 30.1348 6.54883 30.1348 5.77148C30.1348 5.07617 29.9688 4.51367 29.6367 4.08398C29.3086 3.65039 28.8711 3.43359 28.3242 3.43359C27.7891 3.43359 27.3574 3.64648 27.0293 4.07227C26.7012 4.49805 26.5371 5.10742 26.5371 5.90039ZM35.6426 3.63281C35.4785 3.60547 35.3008 3.5918 35.1094 3.5918C34.3984 3.5918 33.916 3.89453 33.6621 4.5V9H32.5781V2.66016H33.6328L33.6504 3.39258C34.0059 2.82617 34.5098 2.54297 35.1621 2.54297C35.373 2.54297 35.5332 2.57031 35.6426 2.625V3.63281ZM37.8223 9H36.7383V2.66016H37.8223V9ZM36.6504 0.978516C36.6504 0.802734 36.7031 0.654297 36.8086 0.533203C36.918 0.412109 37.0781 0.351562 37.2891 0.351562C37.5 0.351562 37.6602 0.412109 37.7695 0.533203C37.8789 0.654297 37.9336 0.802734 37.9336 0.978516C37.9336 1.1543 37.8789 1.30078 37.7695 1.41797C37.6602 1.53516 37.5 1.59375 37.2891 1.59375C37.0781 1.59375 36.918 1.53516 36.8086 1.41797C36.7031 1.30078 36.6504 1.1543 36.6504 0.978516ZM40.5879 2.66016L40.623 3.45703C41.1074 2.84766 41.7402 2.54297 42.5215 2.54297C43.8613 2.54297 44.5371 3.29883 44.5488 4.81055V9H43.4648V4.80469C43.4609 4.34766 43.3555 4.00977 43.1484 3.79102C42.9453 3.57227 42.627 3.46289 42.1934 3.46289C41.8418 3.46289 41.5332 3.55664 41.2676 3.74414C41.002 3.93164 40.7949 4.17773 40.6465 4.48242V9H39.5625V2.66016H40.5879ZM45.9258 5.77734C45.9258 4.78906 46.1543 4.00391 46.6113 3.42188C47.0684 2.83594 47.6738 2.54297 48.4277 2.54297C49.2012 2.54297 49.8047 2.81641 50.2383 3.36328L50.291 2.66016H51.2812V8.84766C51.2812 9.66797 51.0371 10.3145 50.5488 10.7871C50.0645 11.2598 49.4121 11.4961 48.5918 11.4961C48.1348 11.4961 47.6875 11.3984 47.25 11.2031C46.8125 11.0078 46.4785 10.7402 46.248 10.4004L46.8105 9.75C47.2754 10.3242 47.8438 10.6113 48.5156 10.6113C49.043 10.6113 49.4531 10.4629 49.7461 10.166C50.043 9.86914 50.1914 9.45117 50.1914 8.91211V8.36719C49.7578 8.86719 49.166 9.11719 48.416 9.11719C47.6738 9.11719 47.0723 8.81836 46.6113 8.2207C46.1543 7.62305 45.9258 6.80859 45.9258 5.77734ZM47.0156 5.90039C47.0156 6.61523 47.1621 7.17773 47.4551 7.58789C47.748 7.99414 48.1582 8.19727 48.6855 8.19727C49.3691 8.19727 49.8711 7.88672 50.1914 7.26562V4.37109C49.8594 3.76562 49.3613 3.46289 48.6973 3.46289C48.1699 3.46289 47.7578 3.66797 47.4609 4.07812C47.1641 4.48828 47.0156 5.0957 47.0156 5.90039Z" fill="black"/>
</svg>
