<svg width="35" height="10" viewBox="0 0 35 10" fill="none" xmlns="http://www.w3.org/2000/svg">
<path d="M7.26562 6.29297C7.16016 7.19531 6.82617 7.89258 6.26367 8.38477C5.70508 8.87305 4.96094 9.11719 4.03125 9.11719C3.02344 9.11719 2.21484 8.75586 1.60547 8.0332C1 7.31055 0.697266 6.34375 0.697266 5.13281V4.3125C0.697266 3.51953 0.837891 2.82227 1.11914 2.2207C1.4043 1.61914 1.80664 1.1582 2.32617 0.837891C2.8457 0.513672 3.44727 0.351562 4.13086 0.351562C5.03711 0.351562 5.76367 0.605469 6.31055 1.11328C6.85742 1.61719 7.17578 2.31641 7.26562 3.21094H6.13477C6.03711 2.53125 5.82422 2.03906 5.49609 1.73438C5.17188 1.42969 4.7168 1.27734 4.13086 1.27734C3.41211 1.27734 2.84766 1.54297 2.4375 2.07422C2.03125 2.60547 1.82812 3.36133 1.82812 4.3418V5.16797C1.82812 6.09375 2.02148 6.83008 2.4082 7.37695C2.79492 7.92383 3.33594 8.19727 4.03125 8.19727C4.65625 8.19727 5.13477 8.05664 5.4668 7.77539C5.80273 7.49023 6.02539 6.99609 6.13477 6.29297H7.26562ZM9.7207 3.42773C10.2012 2.83789 10.8262 2.54297 11.5957 2.54297C12.9355 2.54297 13.6113 3.29883 13.623 4.81055V9H12.5391V4.80469C12.5352 4.34766 12.4297 4.00977 12.2227 3.79102C12.0195 3.57227 11.7012 3.46289 11.2676 3.46289C10.916 3.46289 10.6074 3.55664 10.3418 3.74414C10.0762 3.93164 9.86914 4.17773 9.7207 4.48242V9H8.63672V0H9.7207V3.42773ZM19.1602 9C19.0977 8.875 19.0469 8.65234 19.0078 8.33203C18.5039 8.85547 17.9023 9.11719 17.2031 9.11719C16.5781 9.11719 16.0645 8.94141 15.6621 8.58984C15.2637 8.23438 15.0645 7.78516 15.0645 7.24219C15.0645 6.58203 15.3145 6.07031 15.8145 5.70703C16.3184 5.33984 17.0254 5.15625 17.9355 5.15625H18.9902V4.6582C18.9902 4.2793 18.877 3.97852 18.6504 3.75586C18.4238 3.5293 18.0898 3.41602 17.6484 3.41602C17.2617 3.41602 16.9375 3.51367 16.6758 3.70898C16.4141 3.9043 16.2832 4.14062 16.2832 4.41797H15.1934C15.1934 4.10156 15.3047 3.79688 15.5273 3.50391C15.7539 3.20703 16.0586 2.97266 16.4414 2.80078C16.8281 2.62891 17.252 2.54297 17.7129 2.54297C18.4434 2.54297 19.0156 2.72656 19.4297 3.09375C19.8438 3.45703 20.0586 3.95898 20.0742 4.59961V7.51758C20.0742 8.09961 20.1484 8.5625 20.2969 8.90625V9H19.1602ZM17.3613 8.17383C17.7012 8.17383 18.0234 8.08594 18.3281 7.91016C18.6328 7.73438 18.8535 7.50586 18.9902 7.22461V5.92383H18.1406C16.8125 5.92383 16.1484 6.3125 16.1484 7.08984C16.1484 7.42969 16.2617 7.69531 16.4883 7.88672C16.7148 8.07812 17.0059 8.17383 17.3613 8.17383ZM24.8379 3.63281C24.6738 3.60547 24.4961 3.5918 24.3047 3.5918C23.5938 3.5918 23.1113 3.89453 22.8574 4.5V9H21.7734V2.66016H22.8281L22.8457 3.39258C23.2012 2.82617 23.7051 2.54297 24.3574 2.54297C24.5684 2.54297 24.7285 2.57031 24.8379 2.625V3.63281ZM27.6035 1.125V2.66016H28.7871V3.49805H27.6035V7.42969C27.6035 7.68359 27.6562 7.875 27.7617 8.00391C27.8672 8.12891 28.0469 8.19141 28.3008 8.19141C28.4258 8.19141 28.5977 8.16797 28.8164 8.12109V9C28.5312 9.07812 28.2539 9.11719 27.9844 9.11719C27.5 9.11719 27.1348 8.9707 26.8887 8.67773C26.6426 8.38477 26.5195 7.96875 26.5195 7.42969V3.49805H25.3652V2.66016H26.5195V1.125H27.6035ZM33.75 7.31836C33.75 7.02539 33.6387 6.79883 33.416 6.63867C33.1973 6.47461 32.8125 6.33398 32.2617 6.2168C31.7148 6.09961 31.2793 5.95898 30.9551 5.79492C30.6348 5.63086 30.3965 5.43555 30.2402 5.20898C30.0879 4.98242 30.0117 4.71289 30.0117 4.40039C30.0117 3.88086 30.2305 3.44141 30.668 3.08203C31.1094 2.72266 31.6719 2.54297 32.3555 2.54297C33.0742 2.54297 33.6562 2.72852 34.1016 3.09961C34.5508 3.4707 34.7754 3.94531 34.7754 4.52344H33.6855C33.6855 4.22656 33.5586 3.9707 33.3047 3.75586C33.0547 3.54102 32.7383 3.43359 32.3555 3.43359C31.9609 3.43359 31.6523 3.51953 31.4297 3.69141C31.207 3.86328 31.0957 4.08789 31.0957 4.36523C31.0957 4.62695 31.1992 4.82422 31.4062 4.95703C31.6133 5.08984 31.9863 5.2168 32.5254 5.33789C33.0684 5.45898 33.5078 5.60352 33.8438 5.77148C34.1797 5.93945 34.4277 6.14258 34.5879 6.38086C34.752 6.61523 34.834 6.90234 34.834 7.24219C34.834 7.80859 34.6074 8.26367 34.1543 8.60742C33.7012 8.94727 33.1133 9.11719 32.3906 9.11719C31.8828 9.11719 31.4336 9.02734 31.043 8.84766C30.6523 8.66797 30.3457 8.41797 30.123 8.09766C29.9043 7.77344 29.7949 7.42383 29.7949 7.04883H30.8789C30.8984 7.41211 31.043 7.70117 31.3125 7.91602C31.5859 8.12695 31.9453 8.23242 32.3906 8.23242C32.8008 8.23242 33.1289 8.15039 33.375 7.98633C33.625 7.81836 33.75 7.5957 33.75 7.31836Z" fill="black"/>
</svg>
