<svg width="47" height="11" viewBox="0 0 47 11" fill="none" xmlns="http://www.w3.org/2000/svg">
<path d="M1.19727 10H0.0722656V1.46875H1.19727V10ZM4.11523 3.66016L4.15039 4.45703C4.63477 3.84766 5.26758 3.54297 6.04883 3.54297C7.38867 3.54297 8.06445 4.29883 8.07617 5.81055V10H6.99219V5.80469C6.98828 5.34766 6.88281 5.00977 6.67578 4.79102C6.47266 4.57227 6.1543 4.46289 5.7207 4.46289C5.36914 4.46289 5.06055 4.55664 4.79492 4.74414C4.5293 4.93164 4.32227 5.17773 4.17383 5.48242V10H3.08984V3.66016H4.11523ZM11.1816 2.125V3.66016H12.3652V4.49805H11.1816V8.42969C11.1816 8.68359 11.2344 8.875 11.3398 9.00391C11.4453 9.12891 11.625 9.19141 11.8789 9.19141C12.0039 9.19141 12.1758 9.16797 12.3945 9.12109V10C12.1094 10.0781 11.832 10.1172 11.5625 10.1172C11.0781 10.1172 10.7129 9.9707 10.4668 9.67773C10.2207 9.38477 10.0977 8.96875 10.0977 8.42969V4.49805H8.94336V3.66016H10.0977V2.125H11.1816ZM16.2676 10.1172C15.4082 10.1172 14.709 9.83594 14.1699 9.27344C13.6309 8.70703 13.3613 7.95117 13.3613 7.00586V6.80664C13.3613 6.17773 13.4805 5.61719 13.7188 5.125C13.9609 4.62891 14.2969 4.24219 14.7266 3.96484C15.1602 3.68359 15.6289 3.54297 16.1328 3.54297C16.957 3.54297 17.5977 3.81445 18.0547 4.35742C18.5117 4.90039 18.7402 5.67773 18.7402 6.68945V7.14062H14.4453C14.4609 7.76562 14.6426 8.27148 14.9902 8.6582C15.3418 9.04102 15.7871 9.23242 16.3262 9.23242C16.709 9.23242 17.0332 9.1543 17.2988 8.99805C17.5645 8.8418 17.7969 8.63477 17.9961 8.37695L18.6582 8.89258C18.127 9.70898 17.3301 10.1172 16.2676 10.1172ZM16.1328 4.43359C15.6953 4.43359 15.3281 4.59375 15.0312 4.91406C14.7344 5.23047 14.5508 5.67578 14.4805 6.25H17.6562V6.16797C17.625 5.61719 17.4766 5.19141 17.2109 4.89062C16.9453 4.58594 16.5859 4.43359 16.1328 4.43359ZM23.0645 4.63281C22.9004 4.60547 22.7227 4.5918 22.5312 4.5918C21.8203 4.5918 21.3379 4.89453 21.084 5.5V10H20V3.66016H21.0547L21.0723 4.39258C21.4277 3.82617 21.9316 3.54297 22.584 3.54297C22.7949 3.54297 22.9551 3.57031 23.0645 3.625V4.63281ZM24.6934 10V4.49805H23.6914V3.66016H24.6934V3.00977C24.6934 2.33008 24.875 1.80469 25.2383 1.43359C25.6016 1.0625 26.1152 0.876953 26.7793 0.876953C27.0293 0.876953 27.2773 0.910156 27.5234 0.976562L27.4648 1.85547C27.2812 1.82031 27.0859 1.80273 26.8789 1.80273C26.5273 1.80273 26.2559 1.90625 26.0645 2.11328C25.873 2.31641 25.7773 2.60938 25.7773 2.99219V3.66016H27.1309V4.49805H25.7773V10H24.6934ZM32.2461 10C32.1836 9.875 32.1328 9.65234 32.0938 9.33203C31.5898 9.85547 30.9883 10.1172 30.2891 10.1172C29.6641 10.1172 29.1504 9.94141 28.748 9.58984C28.3496 9.23438 28.1504 8.78516 28.1504 8.24219C28.1504 7.58203 28.4004 7.07031 28.9004 6.70703C29.4043 6.33984 30.1113 6.15625 31.0215 6.15625H32.0762V5.6582C32.0762 5.2793 31.9629 4.97852 31.7363 4.75586C31.5098 4.5293 31.1758 4.41602 30.7344 4.41602C30.3477 4.41602 30.0234 4.51367 29.7617 4.70898C29.5 4.9043 29.3691 5.14062 29.3691 5.41797H28.2793C28.2793 5.10156 28.3906 4.79688 28.6133 4.50391C28.8398 4.20703 29.1445 3.97266 29.5273 3.80078C29.9141 3.62891 30.3379 3.54297 30.7988 3.54297C31.5293 3.54297 32.1016 3.72656 32.5156 4.09375C32.9297 4.45703 33.1445 4.95898 33.1602 5.59961V8.51758C33.1602 9.09961 33.2344 9.5625 33.3828 9.90625V10H32.2461ZM30.4473 9.17383C30.7871 9.17383 31.1094 9.08594 31.4141 8.91016C31.7188 8.73438 31.9395 8.50586 32.0762 8.22461V6.92383H31.2266C29.8984 6.92383 29.2344 7.3125 29.2344 8.08984C29.2344 8.42969 29.3477 8.69531 29.5742 8.88672C29.8008 9.07812 30.0918 9.17383 30.4473 9.17383ZM37.4023 9.23242C37.7891 9.23242 38.127 9.11523 38.416 8.88086C38.7051 8.64648 38.8652 8.35352 38.8965 8.00195H39.9219C39.9023 8.36523 39.7773 8.71094 39.5469 9.03906C39.3164 9.36719 39.0078 9.62891 38.6211 9.82422C38.2383 10.0195 37.832 10.1172 37.4023 10.1172C36.5391 10.1172 35.8516 9.83008 35.3398 9.25586C34.832 8.67773 34.5781 7.88867 34.5781 6.88867V6.70703C34.5781 6.08984 34.6914 5.54102 34.918 5.06055C35.1445 4.58008 35.4688 4.20703 35.8906 3.94141C36.3164 3.67578 36.8184 3.54297 37.3965 3.54297C38.1074 3.54297 38.6973 3.75586 39.166 4.18164C39.6387 4.60742 39.8906 5.16016 39.9219 5.83984H38.8965C38.8652 5.42969 38.709 5.09375 38.4277 4.83203C38.1504 4.56641 37.8066 4.43359 37.3965 4.43359C36.8457 4.43359 36.418 4.63281 36.1133 5.03125C35.8125 5.42578 35.6621 5.99805 35.6621 6.74805V6.95312C35.6621 7.68359 35.8125 8.24609 36.1133 8.64062C36.4141 9.03516 36.8438 9.23242 37.4023 9.23242ZM43.7715 10.1172C42.9121 10.1172 42.2129 9.83594 41.6738 9.27344C41.1348 8.70703 40.8652 7.95117 40.8652 7.00586V6.80664C40.8652 6.17773 40.9844 5.61719 41.2227 5.125C41.4648 4.62891 41.8008 4.24219 42.2305 3.96484C42.6641 3.68359 43.1328 3.54297 43.6367 3.54297C44.4609 3.54297 45.1016 3.81445 45.5586 4.35742C46.0156 4.90039 46.2441 5.67773 46.2441 6.68945V7.14062H41.9492C41.9648 7.76562 42.1465 8.27148 42.4941 8.6582C42.8457 9.04102 43.291 9.23242 43.8301 9.23242C44.2129 9.23242 44.5371 9.1543 44.8027 8.99805C45.0684 8.8418 45.3008 8.63477 45.5 8.37695L46.1621 8.89258C45.6309 9.70898 44.834 10.1172 43.7715 10.1172ZM43.6367 4.43359C43.1992 4.43359 42.832 4.59375 42.5352 4.91406C42.2383 5.23047 42.0547 5.67578 41.9844 6.25H45.1602V6.16797C45.1289 5.61719 44.9805 5.19141 44.7148 4.89062C44.4492 4.58594 44.0898 4.43359 43.6367 4.43359Z" fill="black"/>
</svg>
