<svg width="60" height="10" viewBox="0 0 60 10" fill="none" xmlns="http://www.w3.org/2000/svg">
<path d="M4.11914 5.54883H2.11523V9H0.984375V0.46875H3.80859C4.76953 0.46875 5.50781 0.6875 6.02344 1.125C6.54297 1.5625 6.80273 2.19922 6.80273 3.03516C6.80273 3.56641 6.6582 4.0293 6.36914 4.42383C6.08398 4.81836 5.68555 5.11328 5.17383 5.30859L7.17773 8.92969V9H5.9707L4.11914 5.54883ZM2.11523 4.62891H3.84375C4.40234 4.62891 4.8457 4.48438 5.17383 4.19531C5.50586 3.90625 5.67188 3.51953 5.67188 3.03516C5.67188 2.50781 5.51367 2.10352 5.19727 1.82227C4.88477 1.54102 4.43164 1.39844 3.83789 1.39453H2.11523V4.62891ZM10.8457 9.11719C9.98633 9.11719 9.28711 8.83594 8.74805 8.27344C8.20898 7.70703 7.93945 6.95117 7.93945 6.00586V5.80664C7.93945 5.17773 8.05859 4.61719 8.29688 4.125C8.53906 3.62891 8.875 3.24219 9.30469 2.96484C9.73828 2.68359 10.207 2.54297 10.7109 2.54297C11.5352 2.54297 12.1758 2.81445 12.6328 3.35742C13.0898 3.90039 13.3184 4.67773 13.3184 5.68945V6.14062H9.02344C9.03906 6.76562 9.2207 7.27148 9.56836 7.6582C9.91992 8.04102 10.3652 8.23242 10.9043 8.23242C11.2871 8.23242 11.6113 8.1543 11.877 7.99805C12.1426 7.8418 12.375 7.63477 12.5742 7.37695L13.2363 7.89258C12.7051 8.70898 11.9082 9.11719 10.8457 9.11719ZM10.7109 3.43359C10.2734 3.43359 9.90625 3.59375 9.60938 3.91406C9.3125 4.23047 9.12891 4.67578 9.05859 5.25H12.2344V5.16797C12.2031 4.61719 12.0547 4.19141 11.7891 3.89062C11.5234 3.58594 11.1641 3.43359 10.7109 3.43359ZM18.4922 9C18.4297 8.875 18.3789 8.65234 18.3398 8.33203C17.8359 8.85547 17.2344 9.11719 16.5352 9.11719C15.9102 9.11719 15.3965 8.94141 14.9941 8.58984C14.5957 8.23438 14.3965 7.78516 14.3965 7.24219C14.3965 6.58203 14.6465 6.07031 15.1465 5.70703C15.6504 5.33984 16.3574 5.15625 17.2676 5.15625H18.3223V4.6582C18.3223 4.2793 18.209 3.97852 17.9824 3.75586C17.7559 3.5293 17.4219 3.41602 16.9805 3.41602C16.5938 3.41602 16.2695 3.51367 16.0078 3.70898C15.7461 3.9043 15.6152 4.14062 15.6152 4.41797H14.5254C14.5254 4.10156 14.6367 3.79688 14.8594 3.50391C15.0859 3.20703 15.3906 2.97266 15.7734 2.80078C16.1602 2.62891 16.584 2.54297 17.0449 2.54297C17.7754 2.54297 18.3477 2.72656 18.7617 3.09375C19.1758 3.45703 19.3906 3.95898 19.4062 4.59961V7.51758C19.4062 8.09961 19.4805 8.5625 19.6289 8.90625V9H18.4922ZM16.6934 8.17383C17.0332 8.17383 17.3555 8.08594 17.6602 7.91016C17.9648 7.73438 18.1855 7.50586 18.3223 7.22461V5.92383H17.4727C16.1445 5.92383 15.4805 6.3125 15.4805 7.08984C15.4805 7.42969 15.5938 7.69531 15.8203 7.88672C16.0469 8.07812 16.3379 8.17383 16.6934 8.17383ZM22.2832 9H21.1992V0H22.2832V9ZM29.6309 9.11719C28.7715 9.11719 28.0723 8.83594 27.5332 8.27344C26.9941 7.70703 26.7246 6.95117 26.7246 6.00586V5.80664C26.7246 5.17773 26.8438 4.61719 27.082 4.125C27.3242 3.62891 27.6602 3.24219 28.0898 2.96484C28.5234 2.68359 28.9922 2.54297 29.4961 2.54297C30.3203 2.54297 30.9609 2.81445 31.418 3.35742C31.875 3.90039 32.1035 4.67773 32.1035 5.68945V6.14062H27.8086C27.8242 6.76562 28.0059 7.27148 28.3535 7.6582C28.7051 8.04102 29.1504 8.23242 29.6895 8.23242C30.0723 8.23242 30.3965 8.1543 30.6621 7.99805C30.9277 7.8418 31.1602 7.63477 31.3594 7.37695L32.0215 7.89258C31.4902 8.70898 30.6934 9.11719 29.6309 9.11719ZM29.4961 3.43359C29.0586 3.43359 28.6914 3.59375 28.3945 3.91406C28.0977 4.23047 27.9141 4.67578 27.8438 5.25H31.0195V5.16797C30.9883 4.61719 30.8398 4.19141 30.5742 3.89062C30.3086 3.58594 29.9492 3.43359 29.4961 3.43359ZM37.0547 7.31836C37.0547 7.02539 36.9434 6.79883 36.7207 6.63867C36.502 6.47461 36.1172 6.33398 35.5664 6.2168C35.0195 6.09961 34.584 5.95898 34.2598 5.79492C33.9395 5.63086 33.7012 5.43555 33.5449 5.20898C33.3926 4.98242 33.3164 4.71289 33.3164 4.40039C33.3164 3.88086 33.5352 3.44141 33.9727 3.08203C34.4141 2.72266 34.9766 2.54297 35.6602 2.54297C36.3789 2.54297 36.9609 2.72852 37.4062 3.09961C37.8555 3.4707 38.0801 3.94531 38.0801 4.52344H36.9902C36.9902 4.22656 36.8633 3.9707 36.6094 3.75586C36.3594 3.54102 36.043 3.43359 35.6602 3.43359C35.2656 3.43359 34.957 3.51953 34.7344 3.69141C34.5117 3.86328 34.4004 4.08789 34.4004 4.36523C34.4004 4.62695 34.5039 4.82422 34.7109 4.95703C34.918 5.08984 35.291 5.2168 35.8301 5.33789C36.373 5.45898 36.8125 5.60352 37.1484 5.77148C37.4844 5.93945 37.7324 6.14258 37.8926 6.38086C38.0566 6.61523 38.1387 6.90234 38.1387 7.24219C38.1387 7.80859 37.9121 8.26367 37.459 8.60742C37.0059 8.94727 36.418 9.11719 35.6953 9.11719C35.1875 9.11719 34.7383 9.02734 34.3477 8.84766C33.957 8.66797 33.6504 8.41797 33.4277 8.09766C33.209 7.77344 33.0996 7.42383 33.0996 7.04883H34.1836C34.2031 7.41211 34.3477 7.70117 34.6172 7.91602C34.8906 8.12695 35.25 8.23242 35.6953 8.23242C36.1055 8.23242 36.4336 8.15039 36.6797 7.98633C36.9297 7.81836 37.0547 7.5957 37.0547 7.31836ZM41.0215 1.125V2.66016H42.2051V3.49805H41.0215V7.42969C41.0215 7.68359 41.0742 7.875 41.1797 8.00391C41.2852 8.12891 41.4648 8.19141 41.7188 8.19141C41.8438 8.19141 42.0156 8.16797 42.2344 8.12109V9C41.9492 9.07812 41.6719 9.11719 41.4023 9.11719C40.918 9.11719 40.5527 8.9707 40.3066 8.67773C40.0605 8.38477 39.9375 7.96875 39.9375 7.42969V3.49805H38.7832V2.66016H39.9375V1.125H41.0215ZM47.3906 9C47.3281 8.875 47.2773 8.65234 47.2383 8.33203C46.7344 8.85547 46.1328 9.11719 45.4336 9.11719C44.8086 9.11719 44.2949 8.94141 43.8926 8.58984C43.4941 8.23438 43.2949 7.78516 43.2949 7.24219C43.2949 6.58203 43.5449 6.07031 44.0449 5.70703C44.5488 5.33984 45.2559 5.15625 46.166 5.15625H47.2207V4.6582C47.2207 4.2793 47.1074 3.97852 46.8809 3.75586C46.6543 3.5293 46.3203 3.41602 45.8789 3.41602C45.4922 3.41602 45.168 3.51367 44.9062 3.70898C44.6445 3.9043 44.5137 4.14062 44.5137 4.41797H43.4238C43.4238 4.10156 43.5352 3.79688 43.7578 3.50391C43.9844 3.20703 44.2891 2.97266 44.6719 2.80078C45.0586 2.62891 45.4824 2.54297 45.9434 2.54297C46.6738 2.54297 47.2461 2.72656 47.6602 3.09375C48.0742 3.45703 48.2891 3.95898 48.3047 4.59961V7.51758C48.3047 8.09961 48.3789 8.5625 48.5273 8.90625V9H47.3906ZM45.5918 8.17383C45.9316 8.17383 46.2539 8.08594 46.5586 7.91016C46.8633 7.73438 47.084 7.50586 47.2207 7.22461V5.92383H46.3711C45.043 5.92383 44.3789 6.3125 44.3789 7.08984C44.3789 7.42969 44.4922 7.69531 44.7188 7.88672C44.9453 8.07812 45.2363 8.17383 45.5918 8.17383ZM51.4746 1.125V2.66016H52.6582V3.49805H51.4746V7.42969C51.4746 7.68359 51.5273 7.875 51.6328 8.00391C51.7383 8.12891 51.918 8.19141 52.1719 8.19141C52.2969 8.19141 52.4688 8.16797 52.6875 8.12109V9C52.4023 9.07812 52.125 9.11719 51.8555 9.11719C51.3711 9.11719 51.0059 8.9707 50.7598 8.67773C50.5137 8.38477 50.3906 7.96875 50.3906 7.42969V3.49805H49.2363V2.66016H50.3906V1.125H51.4746ZM56.5605 9.11719C55.7012 9.11719 55.002 8.83594 54.4629 8.27344C53.9238 7.70703 53.6543 6.95117 53.6543 6.00586V5.80664C53.6543 5.17773 53.7734 4.61719 54.0117 4.125C54.2539 3.62891 54.5898 3.24219 55.0195 2.96484C55.4531 2.68359 55.9219 2.54297 56.4258 2.54297C57.25 2.54297 57.8906 2.81445 58.3477 3.35742C58.8047 3.90039 59.0332 4.67773 59.0332 5.68945V6.14062H54.7383C54.7539 6.76562 54.9355 7.27148 55.2832 7.6582C55.6348 8.04102 56.0801 8.23242 56.6191 8.23242C57.002 8.23242 57.3262 8.1543 57.5918 7.99805C57.8574 7.8418 58.0898 7.63477 58.2891 7.37695L58.9512 7.89258C58.4199 8.70898 57.623 9.11719 56.5605 9.11719ZM56.4258 3.43359C55.9883 3.43359 55.6211 3.59375 55.3242 3.91406C55.0273 4.23047 54.8438 4.67578 54.7734 5.25H57.9492V5.16797C57.918 4.61719 57.7695 4.19141 57.5039 3.89062C57.2383 3.58594 56.8789 3.43359 56.4258 3.43359Z" fill="black"/>
</svg>
