<svg width="32" height="10" viewBox="0 0 32 10" fill="none" xmlns="http://www.w3.org/2000/svg">
<path d="M3.50391 5.19727C2.53906 4.91992 1.83594 4.58008 1.39453 4.17773C0.957031 3.77148 0.738281 3.27148 0.738281 2.67773C0.738281 2.00586 1.00586 1.45117 1.54102 1.01367C2.08008 0.572266 2.7793 0.351562 3.63867 0.351562C4.22461 0.351562 4.74609 0.464844 5.20312 0.691406C5.66406 0.917969 6.01953 1.23047 6.26953 1.62891C6.52344 2.02734 6.65039 2.46289 6.65039 2.93555H5.51953C5.51953 2.41992 5.35547 2.01562 5.02734 1.72266C4.69922 1.42578 4.23633 1.27734 3.63867 1.27734C3.08398 1.27734 2.65039 1.40039 2.33789 1.64648C2.0293 1.88867 1.875 2.22656 1.875 2.66016C1.875 3.00781 2.02148 3.30273 2.31445 3.54492C2.61133 3.7832 3.11328 4.00195 3.82031 4.20117C4.53125 4.40039 5.08594 4.62109 5.48438 4.86328C5.88672 5.10156 6.18359 5.38086 6.375 5.70117C6.57031 6.02148 6.66797 6.39844 6.66797 6.83203C6.66797 7.52344 6.39844 8.07812 5.85938 8.49609C5.32031 8.91016 4.59961 9.11719 3.69727 9.11719C3.11133 9.11719 2.56445 9.00586 2.05664 8.7832C1.54883 8.55664 1.15625 8.24805 0.878906 7.85742C0.605469 7.4668 0.46875 7.02344 0.46875 6.52734H1.59961C1.59961 7.04297 1.78906 7.45117 2.16797 7.75195C2.55078 8.04883 3.06055 8.19727 3.69727 8.19727C4.29102 8.19727 4.74609 8.07617 5.0625 7.83398C5.37891 7.5918 5.53711 7.26172 5.53711 6.84375C5.53711 6.42578 5.39062 6.10352 5.09766 5.87695C4.80469 5.64648 4.27344 5.41992 3.50391 5.19727ZM7.6582 5.77148C7.6582 5.15039 7.7793 4.5918 8.02148 4.0957C8.26758 3.59961 8.60742 3.2168 9.04102 2.94727C9.47852 2.67773 9.97656 2.54297 10.5352 2.54297C11.3984 2.54297 12.0957 2.8418 12.627 3.43945C13.1621 4.03711 13.4297 4.83203 13.4297 5.82422V5.90039C13.4297 6.51758 13.3105 7.07227 13.0723 7.56445C12.8379 8.05273 12.5 8.43359 12.0586 8.70703C11.6211 8.98047 11.1172 9.11719 10.5469 9.11719C9.6875 9.11719 8.99023 8.81836 8.45508 8.2207C7.92383 7.62305 7.6582 6.83203 7.6582 5.84766V5.77148ZM8.74805 5.90039C8.74805 6.60352 8.91016 7.16797 9.23438 7.59375C9.5625 8.01953 10 8.23242 10.5469 8.23242C11.0977 8.23242 11.5352 8.01758 11.8594 7.58789C12.1836 7.1543 12.3457 6.54883 12.3457 5.77148C12.3457 5.07617 12.1797 4.51367 11.8477 4.08398C11.5195 3.65039 11.082 3.43359 10.5352 3.43359C10 3.43359 9.56836 3.64648 9.24023 4.07227C8.91211 4.49805 8.74805 5.10742 8.74805 5.90039ZM17.332 8.23242C17.7188 8.23242 18.0566 8.11523 18.3457 7.88086C18.6348 7.64648 18.7949 7.35352 18.8262 7.00195H19.8516C19.832 7.36523 19.707 7.71094 19.4766 8.03906C19.2461 8.36719 18.9375 8.62891 18.5508 8.82422C18.168 9.01953 17.7617 9.11719 17.332 9.11719C16.4688 9.11719 15.7812 8.83008 15.2695 8.25586C14.7617 7.67773 14.5078 6.88867 14.5078 5.88867V5.70703C14.5078 5.08984 14.6211 4.54102 14.8477 4.06055C15.0742 3.58008 15.3984 3.20703 15.8203 2.94141C16.2461 2.67578 16.748 2.54297 17.3262 2.54297C18.0371 2.54297 18.627 2.75586 19.0957 3.18164C19.5684 3.60742 19.8203 4.16016 19.8516 4.83984H18.8262C18.7949 4.42969 18.6387 4.09375 18.3574 3.83203C18.0801 3.56641 17.7363 3.43359 17.3262 3.43359C16.7754 3.43359 16.3477 3.63281 16.043 4.03125C15.7422 4.42578 15.5918 4.99805 15.5918 5.74805V5.95312C15.5918 6.68359 15.7422 7.24609 16.043 7.64062C16.3438 8.03516 16.7734 8.23242 17.332 8.23242ZM22.248 9H21.1641V2.66016H22.248V9ZM21.0762 0.978516C21.0762 0.802734 21.1289 0.654297 21.2344 0.533203C21.3438 0.412109 21.5039 0.351562 21.7148 0.351562C21.9258 0.351562 22.0859 0.412109 22.1953 0.533203C22.3047 0.654297 22.3594 0.802734 22.3594 0.978516C22.3594 1.1543 22.3047 1.30078 22.1953 1.41797C22.0859 1.53516 21.9258 1.59375 21.7148 1.59375C21.5039 1.59375 21.3438 1.53516 21.2344 1.41797C21.1289 1.30078 21.0762 1.1543 21.0762 0.978516ZM27.9023 9C27.8398 8.875 27.7891 8.65234 27.75 8.33203C27.2461 8.85547 26.6445 9.11719 25.9453 9.11719C25.3203 9.11719 24.8066 8.94141 24.4043 8.58984C24.0059 8.23438 23.8066 7.78516 23.8066 7.24219C23.8066 6.58203 24.0566 6.07031 24.5566 5.70703C25.0605 5.33984 25.7676 5.15625 26.6777 5.15625H27.7324V4.6582C27.7324 4.2793 27.6191 3.97852 27.3926 3.75586C27.166 3.5293 26.832 3.41602 26.3906 3.41602C26.0039 3.41602 25.6797 3.51367 25.418 3.70898C25.1562 3.9043 25.0254 4.14062 25.0254 4.41797H23.9355C23.9355 4.10156 24.0469 3.79688 24.2695 3.50391C24.4961 3.20703 24.8008 2.97266 25.1836 2.80078C25.5703 2.62891 25.9941 2.54297 26.4551 2.54297C27.1855 2.54297 27.7578 2.72656 28.1719 3.09375C28.5859 3.45703 28.8008 3.95898 28.8164 4.59961V7.51758C28.8164 8.09961 28.8906 8.5625 29.0391 8.90625V9H27.9023ZM26.1035 8.17383C26.4434 8.17383 26.7656 8.08594 27.0703 7.91016C27.375 7.73438 27.5957 7.50586 27.7324 7.22461V5.92383H26.8828C25.5547 5.92383 24.8906 6.3125 24.8906 7.08984C24.8906 7.42969 25.0039 7.69531 25.2305 7.88672C25.457 8.07812 25.748 8.17383 26.1035 8.17383ZM31.6934 9H30.6094V0H31.6934V9Z" fill="black"/>
</svg>
