<svg width="109" height="11" viewBox="0 0 109 11" fill="none" xmlns="http://www.w3.org/2000/svg">
<path d="M6.88477 1.39453H4.14258V9H3.02344V1.39453H0.287109V0.46875H6.88477V1.39453ZM11.2266 9C11.1641 8.875 11.1133 8.65234 11.0742 8.33203C10.5703 8.85547 9.96875 9.11719 9.26953 9.11719C8.64453 9.11719 8.13086 8.94141 7.72852 8.58984C7.33008 8.23438 7.13086 7.78516 7.13086 7.24219C7.13086 6.58203 7.38086 6.07031 7.88086 5.70703C8.38477 5.33984 9.0918 5.15625 10.002 5.15625H11.0566V4.6582C11.0566 4.2793 10.9434 3.97852 10.7168 3.75586C10.4902 3.5293 10.1562 3.41602 9.71484 3.41602C9.32812 3.41602 9.00391 3.51367 8.74219 3.70898C8.48047 3.9043 8.34961 4.14062 8.34961 4.41797H7.25977C7.25977 4.10156 7.37109 3.79688 7.59375 3.50391C7.82031 3.20703 8.125 2.97266 8.50781 2.80078C8.89453 2.62891 9.31836 2.54297 9.7793 2.54297C10.5098 2.54297 11.082 2.72656 11.4961 3.09375C11.9102 3.45703 12.125 3.95898 12.1406 4.59961V7.51758C12.1406 8.09961 12.2148 8.5625 12.3633 8.90625V9H11.2266ZM9.42773 8.17383C9.76758 8.17383 10.0898 8.08594 10.3945 7.91016C10.6992 7.73438 10.9199 7.50586 11.0566 7.22461V5.92383H10.207C8.87891 5.92383 8.21484 6.3125 8.21484 7.08984C8.21484 7.42969 8.32812 7.69531 8.55469 7.88672C8.78125 8.07812 9.07227 8.17383 9.42773 8.17383ZM17.5312 7.31836C17.5312 7.02539 17.4199 6.79883 17.1973 6.63867C16.9785 6.47461 16.5938 6.33398 16.043 6.2168C15.4961 6.09961 15.0605 5.95898 14.7363 5.79492C14.416 5.63086 14.1777 5.43555 14.0215 5.20898C13.8691 4.98242 13.793 4.71289 13.793 4.40039C13.793 3.88086 14.0117 3.44141 14.4492 3.08203C14.8906 2.72266 15.4531 2.54297 16.1367 2.54297C16.8555 2.54297 17.4375 2.72852 17.8828 3.09961C18.332 3.4707 18.5566 3.94531 18.5566 4.52344H17.4668C17.4668 4.22656 17.3398 3.9707 17.0859 3.75586C16.8359 3.54102 16.5195 3.43359 16.1367 3.43359C15.7422 3.43359 15.4336 3.51953 15.2109 3.69141C14.9883 3.86328 14.877 4.08789 14.877 4.36523C14.877 4.62695 14.9805 4.82422 15.1875 4.95703C15.3945 5.08984 15.7676 5.2168 16.3066 5.33789C16.8496 5.45898 17.2891 5.60352 17.625 5.77148C17.9609 5.93945 18.209 6.14258 18.3691 6.38086C18.5332 6.61523 18.6152 6.90234 18.6152 7.24219C18.6152 7.80859 18.3887 8.26367 17.9355 8.60742C17.4824 8.94727 16.8945 9.11719 16.1719 9.11719C15.6641 9.11719 15.2148 9.02734 14.8242 8.84766C14.4336 8.66797 14.127 8.41797 13.9043 8.09766C13.6855 7.77344 13.5762 7.42383 13.5762 7.04883H14.6602C14.6797 7.41211 14.8242 7.70117 15.0938 7.91602C15.3672 8.12695 15.7266 8.23242 16.1719 8.23242C16.582 8.23242 16.9102 8.15039 17.1562 7.98633C17.4062 7.81836 17.5312 7.5957 17.5312 7.31836ZM21.7969 6.06445L21.1172 6.77344V9H20.0332V0H21.1172V5.44336L21.6973 4.74609L23.6719 2.66016H24.9902L22.5234 5.30859L25.2773 9H24.0059L21.7969 6.06445ZM29.8008 7.31836C29.8008 7.02539 29.6895 6.79883 29.4668 6.63867C29.248 6.47461 28.8633 6.33398 28.3125 6.2168C27.7656 6.09961 27.3301 5.95898 27.0059 5.79492C26.6855 5.63086 26.4473 5.43555 26.291 5.20898C26.1387 4.98242 26.0625 4.71289 26.0625 4.40039C26.0625 3.88086 26.2812 3.44141 26.7188 3.08203C27.1602 2.72266 27.7227 2.54297 28.4062 2.54297C29.125 2.54297 29.707 2.72852 30.1523 3.09961C30.6016 3.4707 30.8262 3.94531 30.8262 4.52344H29.7363C29.7363 4.22656 29.6094 3.9707 29.3555 3.75586C29.1055 3.54102 28.7891 3.43359 28.4062 3.43359C28.0117 3.43359 27.7031 3.51953 27.4805 3.69141C27.2578 3.86328 27.1465 4.08789 27.1465 4.36523C27.1465 4.62695 27.25 4.82422 27.457 4.95703C27.6641 5.08984 28.0371 5.2168 28.5762 5.33789C29.1191 5.45898 29.5586 5.60352 29.8945 5.77148C30.2305 5.93945 30.4785 6.14258 30.6387 6.38086C30.8027 6.61523 30.8848 6.90234 30.8848 7.24219C30.8848 7.80859 30.6582 8.26367 30.2051 8.60742C29.752 8.94727 29.1641 9.11719 28.4414 9.11719C27.9336 9.11719 27.4844 9.02734 27.0938 8.84766C26.7031 8.66797 26.3965 8.41797 26.1738 8.09766C25.9551 7.77344 25.8457 7.42383 25.8457 7.04883H26.9297C26.9492 7.41211 27.0938 7.70117 27.3633 7.91602C27.6367 8.12695 27.9961 8.23242 28.4414 8.23242C28.8516 8.23242 29.1797 8.15039 29.4258 7.98633C29.6758 7.81836 29.8008 7.5957 29.8008 7.31836ZM32.2617 10.6992L31.6465 10.2773C32.0137 9.76562 32.2051 9.23828 32.2207 8.69531V7.7168H33.2812V8.56641C33.2812 8.96094 33.1836 9.35547 32.9883 9.75C32.7969 10.1445 32.5547 10.4609 32.2617 10.6992ZM40.1719 8.23242C40.5586 8.23242 40.8965 8.11523 41.1855 7.88086C41.4746 7.64648 41.6348 7.35352 41.666 7.00195H42.6914C42.6719 7.36523 42.5469 7.71094 42.3164 8.03906C42.0859 8.36719 41.7773 8.62891 41.3906 8.82422C41.0078 9.01953 40.6016 9.11719 40.1719 9.11719C39.3086 9.11719 38.6211 8.83008 38.1094 8.25586C37.6016 7.67773 37.3477 6.88867 37.3477 5.88867V5.70703C37.3477 5.08984 37.4609 4.54102 37.6875 4.06055C37.9141 3.58008 38.2383 3.20703 38.6602 2.94141C39.0859 2.67578 39.5879 2.54297 40.166 2.54297C40.877 2.54297 41.4668 2.75586 41.9355 3.18164C42.4082 3.60742 42.6602 4.16016 42.6914 4.83984H41.666C41.6348 4.42969 41.4785 4.09375 41.1973 3.83203C40.9199 3.56641 40.5762 3.43359 40.166 3.43359C39.6152 3.43359 39.1875 3.63281 38.8828 4.03125C38.582 4.42578 38.4316 4.99805 38.4316 5.74805V5.95312C38.4316 6.68359 38.582 7.24609 38.8828 7.64062C39.1836 8.03516 39.6133 8.23242 40.1719 8.23242ZM44.9941 3.42773C45.4746 2.83789 46.0996 2.54297 46.8691 2.54297C48.209 2.54297 48.8848 3.29883 48.8965 4.81055V9H47.8125V4.80469C47.8086 4.34766 47.7031 4.00977 47.4961 3.79102C47.293 3.57227 46.9746 3.46289 46.541 3.46289C46.1895 3.46289 45.8809 3.55664 45.6152 3.74414C45.3496 3.93164 45.1426 4.17773 44.9941 4.48242V9H43.9102V0H44.9941V3.42773ZM54.4336 9C54.3711 8.875 54.3203 8.65234 54.2812 8.33203C53.7773 8.85547 53.1758 9.11719 52.4766 9.11719C51.8516 9.11719 51.3379 8.94141 50.9355 8.58984C50.5371 8.23438 50.3379 7.78516 50.3379 7.24219C50.3379 6.58203 50.5879 6.07031 51.0879 5.70703C51.5918 5.33984 52.2988 5.15625 53.209 5.15625H54.2637V4.6582C54.2637 4.2793 54.1504 3.97852 53.9238 3.75586C53.6973 3.5293 53.3633 3.41602 52.9219 3.41602C52.5352 3.41602 52.2109 3.51367 51.9492 3.70898C51.6875 3.9043 51.5566 4.14062 51.5566 4.41797H50.4668C50.4668 4.10156 50.5781 3.79688 50.8008 3.50391C51.0273 3.20703 51.332 2.97266 51.7148 2.80078C52.1016 2.62891 52.5254 2.54297 52.9863 2.54297C53.7168 2.54297 54.2891 2.72656 54.7031 3.09375C55.1172 3.45703 55.332 3.95898 55.3477 4.59961V7.51758C55.3477 8.09961 55.4219 8.5625 55.5703 8.90625V9H54.4336ZM52.6348 8.17383C52.9746 8.17383 53.2969 8.08594 53.6016 7.91016C53.9062 7.73438 54.127 7.50586 54.2637 7.22461V5.92383H53.4141C52.0859 5.92383 51.4219 6.3125 51.4219 7.08984C51.4219 7.42969 51.5352 7.69531 51.7617 7.88672C51.9883 8.07812 52.2793 8.17383 52.6348 8.17383ZM58.5176 1.125V2.66016H59.7012V3.49805H58.5176V7.42969C58.5176 7.68359 58.5703 7.875 58.6758 8.00391C58.7812 8.12891 58.9609 8.19141 59.2148 8.19141C59.3398 8.19141 59.5117 8.16797 59.7305 8.12109V9C59.4453 9.07812 59.168 9.11719 58.8984 9.11719C58.4141 9.11719 58.0488 8.9707 57.8027 8.67773C57.5566 8.38477 57.4336 7.96875 57.4336 7.42969V3.49805H56.2793V2.66016H57.4336V1.125H58.5176ZM63.7207 6.70898C63.7207 6.29883 63.834 5.92188 64.0605 5.57812C64.291 5.23438 64.7285 4.83398 65.373 4.37695C64.9941 3.91602 64.7402 3.54492 64.6113 3.26367C64.4824 2.98242 64.418 2.70312 64.418 2.42578C64.418 1.77734 64.6094 1.26953 64.9922 0.902344C65.375 0.535156 65.8945 0.351562 66.5508 0.351562C67.1367 0.351562 67.6211 0.523437 68.0039 0.867188C68.3867 1.20703 68.5781 1.63672 68.5781 2.15625C68.5781 2.5 68.4902 2.81836 68.3145 3.11133C68.1426 3.40039 67.8398 3.70508 67.4062 4.02539L66.7793 4.48828L68.6777 6.75586C68.9434 6.24805 69.0762 5.68359 69.0762 5.0625H70.0547C70.0547 6.05859 69.8145 6.88477 69.334 7.54102L70.5527 9H69.252L68.6836 8.32617C68.3945 8.58398 68.0547 8.78125 67.6641 8.91797C67.2773 9.05078 66.8828 9.11719 66.4805 9.11719C65.6484 9.11719 64.9805 8.89648 64.4766 8.45508C63.9727 8.01367 63.7207 7.43164 63.7207 6.70898ZM66.4805 8.23242C67.0547 8.23242 67.5801 8.01367 68.0566 7.57617L65.9766 5.08594L65.7832 5.22656C65.1309 5.70703 64.8047 6.20117 64.8047 6.70898C64.8047 7.16992 64.9531 7.53906 65.25 7.81641C65.5508 8.09375 65.9609 8.23242 66.4805 8.23242ZM65.502 2.39062C65.502 2.76562 65.7324 3.23438 66.1934 3.79688L66.8848 3.31055C67.1504 3.12305 67.332 2.94531 67.4297 2.77734C67.5273 2.60547 67.5762 2.39844 67.5762 2.15625C67.5762 1.89453 67.4785 1.67773 67.2832 1.50586C67.0879 1.33008 66.8418 1.24219 66.5449 1.24219C66.2246 1.24219 65.9707 1.35156 65.7832 1.57031C65.5957 1.78516 65.502 2.05859 65.502 2.39062ZM77.0215 9.11719C76.1621 9.11719 75.4629 8.83594 74.9238 8.27344C74.3848 7.70703 74.1152 6.95117 74.1152 6.00586V5.80664C74.1152 5.17773 74.2344 4.61719 74.4727 4.125C74.7148 3.62891 75.0508 3.24219 75.4805 2.96484C75.9141 2.68359 76.3828 2.54297 76.8867 2.54297C77.7109 2.54297 78.3516 2.81445 78.8086 3.35742C79.2656 3.90039 79.4941 4.67773 79.4941 5.68945V6.14062H75.1992C75.2148 6.76562 75.3965 7.27148 75.7441 7.6582C76.0957 8.04102 76.541 8.23242 77.0801 8.23242C77.4629 8.23242 77.7871 8.1543 78.0527 7.99805C78.3184 7.8418 78.5508 7.63477 78.75 7.37695L79.4121 7.89258C78.8809 8.70898 78.084 9.11719 77.0215 9.11719ZM76.8867 3.43359C76.4492 3.43359 76.082 3.59375 75.7852 3.91406C75.4883 4.23047 75.3047 4.67578 75.2344 5.25H78.4102V5.16797C78.3789 4.61719 78.2305 4.19141 77.9648 3.89062C77.6992 3.58594 77.3398 3.43359 76.8867 3.43359ZM82.7637 7.5293L84.334 2.66016H85.4414L83.168 9H82.3418L80.0449 2.66016H81.1523L82.7637 7.5293ZM89.0332 9.11719C88.1738 9.11719 87.4746 8.83594 86.9355 8.27344C86.3965 7.70703 86.127 6.95117 86.127 6.00586V5.80664C86.127 5.17773 86.2461 4.61719 86.4844 4.125C86.7266 3.62891 87.0625 3.24219 87.4922 2.96484C87.9258 2.68359 88.3945 2.54297 88.8984 2.54297C89.7227 2.54297 90.3633 2.81445 90.8203 3.35742C91.2773 3.90039 91.5059 4.67773 91.5059 5.68945V6.14062H87.2109C87.2266 6.76562 87.4082 7.27148 87.7559 7.6582C88.1074 8.04102 88.5527 8.23242 89.0918 8.23242C89.4746 8.23242 89.7988 8.1543 90.0645 7.99805C90.3301 7.8418 90.5625 7.63477 90.7617 7.37695L91.4238 7.89258C90.8926 8.70898 90.0957 9.11719 89.0332 9.11719ZM88.8984 3.43359C88.4609 3.43359 88.0938 3.59375 87.7969 3.91406C87.5 4.23047 87.3164 4.67578 87.2461 5.25H90.4219V5.16797C90.3906 4.61719 90.2422 4.19141 89.9766 3.89062C89.7109 3.58594 89.3516 3.43359 88.8984 3.43359ZM93.791 2.66016L93.8262 3.45703C94.3105 2.84766 94.9434 2.54297 95.7246 2.54297C97.0645 2.54297 97.7402 3.29883 97.752 4.81055V9H96.668V4.80469C96.6641 4.34766 96.5586 4.00977 96.3516 3.79102C96.1484 3.57227 95.8301 3.46289 95.3965 3.46289C95.0449 3.46289 94.7363 3.55664 94.4707 3.74414C94.2051 3.93164 93.998 4.17773 93.8496 4.48242V9H92.7656V2.66016H93.791ZM100.857 1.125V2.66016H102.041V3.49805H100.857V7.42969C100.857 7.68359 100.91 7.875 101.016 8.00391C101.121 8.12891 101.301 8.19141 101.555 8.19141C101.68 8.19141 101.852 8.16797 102.07 8.12109V9C101.785 9.07812 101.508 9.11719 101.238 9.11719C100.754 9.11719 100.389 8.9707 100.143 8.67773C99.8965 8.38477 99.7734 7.96875 99.7734 7.42969V3.49805H98.6191V2.66016H99.7734V1.125H100.857ZM107.004 7.31836C107.004 7.02539 106.893 6.79883 106.67 6.63867C106.451 6.47461 106.066 6.33398 105.516 6.2168C104.969 6.09961 104.533 5.95898 104.209 5.79492C103.889 5.63086 103.65 5.43555 103.494 5.20898C103.342 4.98242 103.266 4.71289 103.266 4.40039C103.266 3.88086 103.484 3.44141 103.922 3.08203C104.363 2.72266 104.926 2.54297 105.609 2.54297C106.328 2.54297 106.91 2.72852 107.355 3.09961C107.805 3.4707 108.029 3.94531 108.029 4.52344H106.939C106.939 4.22656 106.812 3.9707 106.559 3.75586C106.309 3.54102 105.992 3.43359 105.609 3.43359C105.215 3.43359 104.906 3.51953 104.684 3.69141C104.461 3.86328 104.35 4.08789 104.35 4.36523C104.35 4.62695 104.453 4.82422 104.66 4.95703C104.867 5.08984 105.24 5.2168 105.779 5.33789C106.322 5.45898 106.762 5.60352 107.098 5.77148C107.434 5.93945 107.682 6.14258 107.842 6.38086C108.006 6.61523 108.088 6.90234 108.088 7.24219C108.088 7.80859 107.861 8.26367 107.408 8.60742C106.955 8.94727 106.367 9.11719 105.645 9.11719C105.137 9.11719 104.688 9.02734 104.297 8.84766C103.906 8.66797 103.6 8.41797 103.377 8.09766C103.158 7.77344 103.049 7.42383 103.049 7.04883H104.133C104.152 7.41211 104.297 7.70117 104.566 7.91602C104.84 8.12695 105.199 8.23242 105.645 8.23242C106.055 8.23242 106.383 8.15039 106.629 7.98633C106.879 7.81836 107.004 7.5957 107.004 7.31836Z" fill="black"/>
</svg>
